<?xml version="1.0" encoding="UTF-8"?>
<!DOCTYPE svg PUBLIC "-//W3C//DTD SVG 1.1//EN" "http://www.w3.org/Graphics/SVG/1.1/DTD/svg11.dtd">
<!-- Creator: CorelDRAW -->
<svg xmlns="http://www.w3.org/2000/svg" xml:space="preserve" width="112.995mm" height="101.645mm" version="1.1" style="shape-rendering:geometricPrecision; text-rendering:geometricPrecision; image-rendering:optimizeQuality; fill-rule:evenodd; clip-rule:evenodd"
viewBox="0 0 11299.5 10164.52"
 xmlns:xlink="http://www.w3.org/1999/xlink"
 xmlns:xodm="http://www.corel.com/coreldraw/odm/2003">
 <defs>
  <style type="text/css">
   <![CDATA[
    .fil0 {fill:white}
   ]]>
  </style>
 </defs>
 <g id="Capa_x0020_1">
  <metadata id="CorelCorpID_0Corel-Layer"/>
  <g id="_1741864520240">
   <path class="fil0" d="M1939.04 1694.11l8679.6 -0.01c-9.16,110.08 -78.49,299.84 -111.58,417.65l-841.05 2969.48 -7171.2 0 -555.77 -3387.12zm1720.1 5662.85l6112.72 0c546.1,0 458.45,-539.51 157.13,-580.51l-6190.47 -1.64c-304.87,0.37 -546.73,-5.06 -762.29,-190.35 -10.84,-9.31 -28.91,-25.15 -42.01,-37.37 -243.09,-226.85 -305.63,-548.12 -333.56,-883.7l7065.53 0.18c528.11,3.08 463.68,-124.67 649.94,-779.01 301.23,-1058.24 629.39,-2273.85 947.53,-3313.57 173.93,-568.44 -482.73,-459.06 -883.17,-459.06 -2849.08,0 -5698.15,0 -8547.23,0 -42.21,-507.26 -656.19,-1111.4 -1296.63,-1111.4l-291.09 0c-187.8,0 -303.87,216.16 -230.32,387.12 90.46,210.26 250.56,183.61 521.84,194.61 828.28,33.57 815.4,1113.57 940.87,1864.09l608.47 3651.92c90.47,560.29 435.59,999.97 946.83,1170.13 182.26,60.66 393.52,88.56 625.91,88.56z"/>
   <path class="fil0" d="M8554.61 9579.77c-459.37,0 -635.09,-175.72 -635.09,-635.09 0,-92.08 76.31,-215.86 125.12,-271.81 398.58,-457.02 1150.23,-53.66 944.05,546.96 -53.48,155.79 -250.3,359.94 -434.08,359.94zm-1217.25 -635.09c0,362.27 58.7,629.81 323.07,894.18 556.05,556.05 1558.22,382.65 1859.12,-379.09 187.73,-475.22 25.48,-956.36 -249.09,-1230.94 -745.26,-745.26 -1933.1,-120.84 -1933.1,715.85z"/>
   <path class="fil0" d="M3473.91 9579.77c-459.37,0 -635.09,-175.72 -635.09,-635.09 0,-211.57 288.13,-548.73 686.85,-449.4 666.82,166.11 426.34,1084.49 -51.76,1084.49zm-1217.25 -635.09c0,362.27 58.7,629.81 323.07,894.18 556.05,556.05 1558.22,382.65 1859.12,-379.09 367.18,-929.52 -542.51,-1850.37 -1480.03,-1480.03 -330.5,130.55 -702.16,524.43 -702.16,964.94z"/>
  </g>
 </g>
</svg>
