<?xml version="1.0" encoding="UTF-8"?>
<!DOCTYPE svg PUBLIC "-//W3C//DTD SVG 1.1//EN" "http://www.w3.org/Graphics/SVG/1.1/DTD/svg11.dtd">
<!-- Creator: CorelDRAW -->
<svg xmlns="http://www.w3.org/2000/svg" xml:space="preserve" width="123.407mm" height="135.45mm" version="1.1" style="shape-rendering:geometricPrecision; text-rendering:geometricPrecision; image-rendering:optimizeQuality; fill-rule:evenodd; clip-rule:evenodd"
viewBox="0 0 12340.72 13544.96"
 xmlns:xlink="http://www.w3.org/1999/xlink"
 xmlns:xodm="http://www.corel.com/coreldraw/odm/2003">
 <defs>
  <style type="text/css">
   <![CDATA[
    .fil0 {fill:#4A4A49}
   ]]>
  </style>
 </defs>
 <g id="Capa_x0020_1">
  <metadata id="CorelCorpID_0Corel-Layer"/>
  <g id="_1742138700544">
   <path class="fil0" d="M8359.66 12804.75c88.82,59.48 134.59,132.9 219.44,203.84 97.31,81.36 159.69,114.01 230.29,219.44l-952.38 0c58.54,-87.43 367.12,-305.49 502.65,-423.28zm-7084.83 -12804.22l137.3 0c279.61,18.94 500.66,144.85 500.89,144.88 38.87,5.88 869.58,-340.87 1477.48,538.57 217.43,314.56 218.24,504.51 286.62,798.03 384.73,0 681.14,306.35 753.61,331.04 117.16,39.93 860.9,12.88 1039.66,18.54l85.04 73.7c0,181.49 -15.11,436.06 -0.05,608.51 15.51,177.69 150.43,273.87 185.23,423.24l96.11 -221.36c237.07,-711.14 688.38,-1596.19 1275.59,-2057.74 577.03,-453.55 1346.78,-366.31 1644.97,214.81 394.11,768.06 180.24,1756.77 -83.15,2537.49 -36.04,106.85 -146.78,344.97 -155.74,452.72 77.61,-89.29 182.47,-310.73 392.65,-480.36 123.12,-99.37 368.28,-270.9 559.73,-286.83 10.17,-122.32 52.23,-340.04 71.59,-457.51l214.96 -1345.89c213.25,-759.77 995.33,-642.56 1009.74,4.46 67.76,-18.1 378.79,-261.74 652,-70 173.01,121.42 201.12,370.3 141.65,625.55 161.15,-37.54 293.17,-105.64 471.21,-49.17 138.19,43.83 261.16,146.19 290.41,293.19 107.79,541.66 -581.53,870.54 -1084.35,1205.73l-682.56 455.01c3.03,136.11 45.32,210.61 20.25,390.46 -68.93,494.4 -419.89,974.92 -708.35,1408.21 -57.25,86 -102.45,168.72 -163.78,259.5 -47.52,70.33 -136.83,190.75 -150.79,272.49l-1.68 6744.34c0.18,156.28 -16.44,242.44 -70.07,353.21 -137.27,283.49 -322.4,347.9 -553.67,360.14l-356.04 0 -6767.28 0c-667.53,-4.21 -719.5,-336.07 -719.48,-925.92l0 -5899.47c0,-438.12 -61.95,-601.94 105.82,-714.28 -69.6,-131.54 -130.19,-283.72 -154.99,-453.48 -68.25,-467.22 -3.74,-275.1 -3.74,-525.36 -432.32,-115.44 -1130.62,-1204.71 -555.55,-2063.49 -89.76,-60.11 -191.85,-198.46 -253.98,-301.58 -75.93,-126 -122.66,-248.47 -166.57,-388.98 -130.94,-418.94 -61.56,-962.34 254.82,-1274.11 349.4,-344.31 27.21,-295.19 396.95,-714.15 173.69,-196.81 377.47,-270.56 567.54,-284.14zm127.16 6587.3c326.27,375.36 323.51,330.41 575.65,46.55 85.89,-96.69 145,-149.19 218,-258.19 283.6,189.9 442.6,697.12 692.5,375.04 54.45,-70.17 59.78,-77.84 120.94,-143.62 94.29,-101.44 125.38,-177.94 244.76,-257.88 54.89,81.98 145.03,182.11 218.56,257.63 182.45,187.42 238.47,431.16 552.57,37.31 114.8,-143.94 182.71,-174.88 207.71,-268.48 79.69,21.27 139.97,114.15 244.45,231.73 205.13,230.89 253.88,412.21 560.38,17.55 80.26,-103.35 153.34,-165.88 226.91,-275.74l375.83 391.37c220.55,248.43 285.03,47.05 437.8,-106.84 96.97,-97.69 129.91,-181.29 244.57,-258.07 39.34,58.75 64.97,73.35 109.53,128.56 519.96,644.34 393.72,277.77 763.49,30.17l0 6693.11 -5582.01 0c-84.49,0 -192.27,-148.45 -206.43,-216.85l-5.21 -6423.35zm6851.85 5925.92c-72.14,19.26 -452.56,336.11 -544.39,407.99 -79.48,62.22 -115.77,93.6 -196.35,147.56l0 -6534.38c132.65,88.83 302.56,510.02 519.07,228.06l327.49 -386.79c315.08,210.99 410.21,724.76 710.87,340.5 52.46,-67.04 108.49,-120.05 162.14,-181.77l-2.81 6425.75c-12.24,86.8 -29.89,74.81 -50.1,161.54 -56.83,-38.06 -608.46,-520.16 -608.46,-608.46l0 -5555.55 -317.46 0 0 5555.55zm-3492.06 -6058.2c-391.45,-286.8 -65.22,-1058.2 79.36,-1058.2l264.55 0c0,844.08 473.36,213.77 555.56,158.73 127.31,240.62 257.43,873.31 538.05,299.96 49.77,-101.69 125.61,-222.68 149.78,-326.41 235.43,157.65 618.59,563.46 662.85,107.3 13.34,-137.45 24.98,-206.38 24.98,-371.85 167.57,44.74 352.04,467.61 370.37,687.83 -135.74,0 -119.11,-3.52 -193.69,70.86 -75.25,75.06 -340.3,351.01 -361.87,431.78 -93.62,-25 -295.15,-270.13 -373.35,-367.39 -271.28,-337.37 -386.48,167.59 -684.85,367.39l-231.61 -271.03c-94.73,-95.33 -135.87,-231.61 -297.49,-231.61 -126.96,0 -384.99,423.86 -502.64,502.64zm-502.65 -476.19c-147.39,12.26 -193.69,137.01 -272.47,230.17 -45.75,54.11 -67.05,64.54 -112.76,125.34 -57.41,76.36 -46.65,94.72 -143.87,120.68 -23.36,-87.47 -35.59,-76.8 -98.99,-139.11 -157.42,-154.69 -341.93,-537.29 -552.37,-274.15l-380.38 413.26c-66.63,-99.49 -364.99,-476.19 -476.19,-476.19 -174.14,0 -225.08,220.17 -370.37,317.46l0 -899.47c119.21,-27.77 225.59,-92.19 336.32,-139.87l2362.09 -1050.6c0,175.22 27.39,911.21 -13.81,1017.93l-179.77 322.88c-38.89,91.55 -94.88,316.98 -97.43,431.67zm1798.94 -1137.56c338.96,0 500.77,115.15 687.83,158.73 0,171.25 -26.45,262.95 -26.45,396.82 -228.82,-121.07 -266.33,-238.09 -449.74,-238.09 -145.27,0 -177.38,287.11 -291,370.37 -23.94,-102.73 -46.2,-140.22 -85.61,-231.86 -155.42,-361.41 -333.76,-44.53 -469.95,46.67 -27.73,-57.8 -35.99,-165.49 -52.91,-238.09 -77.84,-18.14 -80.74,-26.46 -185.18,-26.46 69.51,-94.88 375.8,-182.36 502.64,-185.18 68.64,102.5 145.99,192.97 211.64,291 79.44,-53.19 158.66,-105.54 238.1,-158.73l-79.37 -185.18zm4074.07 -291.01c-179.73,-41.87 -347.58,-291 -820.1,-291 0,356.28 -22.61,296.61 146.18,330 276.36,54.68 381.85,197.01 488.74,225.55 -22.04,94.58 -63.6,132.07 -110.92,206.54l-400.17 631.58c-46.4,78.63 -78.93,125.51 -124.1,193.36l-269.02 418.81c-59.17,88.02 -103.12,113.94 -153.99,189.92l-346.9 -367.39c-270.36,-336.23 -390.57,170.33 -684.85,367.39 -244.65,-365.34 -132.27,-74.06 -132.27,-396.82 0,-423.41 -122.1,-157.15 180,-640.1 58.96,-94.26 108.23,-163.01 165.16,-258.12 132.52,-221.41 148.31,-389.36 544.07,-149.75 96.18,58.23 207.9,176.48 301.24,201.41l191.36 -179.02c-124.12,-182.3 -426.98,-373.4 -667.55,-429.45l454.46 -736.01c542.28,-809.31 1370.94,-480.65 1370.94,127.55 0,243.1 -101.11,421.77 -132.28,555.55zm-4920.63 -370.37c9.38,112.76 3.55,53.23 121.62,222.3 54.52,78.07 93.57,127.26 142.93,200.98 -239.19,19.9 -516.37,239.96 -608.46,264.55 0,-202.81 0.98,-405.86 -0.18,-608.64 -2.71,-471.09 199.94,-632.57 431.93,-1102.46l123.8 -193.66c60.06,257.81 529.1,798.22 529.1,1190.48l0 370.37c-177.68,0 -107.62,45.12 -283.75,-192.45 -61.83,-83.39 -148.1,-231.87 -218.89,-283.74 -108.35,28.92 -113.3,98.95 -238.1,132.27zm3306.88 -317.46zm1719.57 -793.65l-1719.57 793.65zm1719.57 -793.65zm-449.73 -52.91l449.73 52.91zm-449.73 -52.91l7.89 7.89c-0.52,-0.52 -10.52,-5.26 -7.89,-7.89zm-7936.5 2037.04c0,-1303.67 -90.26,-904.18 378.87,-1843.35l256.05 -484.69 2645.5 0c-19.2,71.86 -185.54,376.91 -232.99,454.84 -601.85,988.39 94.78,444.57 -1098.61,1017.79 -325.18,156.19 -653.42,278.55 -969.99,432.13 -153.69,74.55 -322.5,137.08 -476.19,211.64l-502.64 211.64zm714.28 -2910.05l2671.96 0 0 264.55 -2671.96 0 0 -264.55zm7857.14 1322.75c8.82,-106.01 65.9,-132.06 128.57,-215.34 217.95,-289.65 285.83,-290.86 526.19,-532.01 147.63,-148.11 572.08,-628.31 800.26,-628.31 163.99,0 257.92,237.65 -185.07,529.21 -144.21,94.92 -280.3,186.71 -428.67,285.62 -227.94,151.94 -628.08,448.01 -841.28,560.83zm-2910.05 1878.3c-66.41,-248.7 -697.88,-732.71 -1058.2,-740.74l0 -52.91c96.58,-25.79 151.65,-89.38 236.96,-133.41 269.24,-138.96 446.59,-56 636.05,-51.77 27.49,-118 75.95,-137.73 79.37,-291.01 -481.32,-112.13 -718.45,-16.11 -1137.57,264.55 0,-862.05 -371.69,-837.55 -290.46,-1107.43l294.03 -793.76c143.5,-381.34 407.1,-844.16 661.2,-1164.2 108.3,-136.4 211.33,-251 355.04,-359.24 725.3,-546.28 1449.95,-101.63 1363.61,1044.34 -68.46,908.78 -282.7,1400.55 -626.07,2259.34 -53.94,134.91 -405.94,1047.09 -513.96,1126.24zm2724.86 -2275.13zm-423.28 -79.36l423.28 79.36zm-423.28 -79.36c0,-131.53 51.74,-390.83 71.61,-510.4 40.28,-242.4 136.85,-1097.04 233.65,-1247.83 129.05,-201.04 329.66,-243.15 329.66,144.47 0,117.94 -409.94,1354.92 -634.92,1613.76zm-7089.94 -1322.75c0,218.8 -66.74,158.73 -396.83,158.73 -98.73,113.91 -72.79,47.95 -79.36,317.46 -141.37,-162.65 -158.9,-529.1 -370.37,-529.1 -79.29,0 -145.82,101.98 -147.94,158.19 -2.96,78.59 158.88,353.39 208.51,469.07 34.17,79.68 81.18,172.87 98.16,245.75 -364.92,85.02 -743.29,61.03 -947.33,-269.6 -71.59,-115.99 -47.19,-153.68 -216.69,-153.68 -343.74,0 65.36,793.65 846.56,793.65 139.46,0 245.76,-42.54 370.37,-52.91l-423.28 820.11c-349.5,-29.09 -171.2,-380.55 -555.55,-291.01 -66.31,138.19 -54.39,203.98 99.03,377.16 83.96,94.77 214.48,199.57 350.7,231.31 -76.8,329.63 -26.45,1559.72 -26.45,2010.58 -110.74,-81.14 -211.64,-433.59 -211.64,-634.92 0,-459.46 206.31,-332.25 -191.03,-576.18 -73.96,-45.4 -113.58,-84.63 -173.2,-144.26 -300.78,-300.81 -376.51,-575.18 -376.51,-999.14 0,-315.43 264.55,-580.61 264.55,-608.46 0,-147.82 -230.88,-306.47 -323.29,-443.92 -234.02,-348.1 -300.28,-882.23 -63.59,-1239.26 97.51,-147.09 169.95,-182.38 307.51,-274.49 0,-487.24 222.85,-714.29 687.83,-714.29 243.92,0 330.37,185.19 449.74,185.19 35.87,0 756.92,-444.07 1295.55,476.93 264.5,452.26 61.21,728.48 271.62,786.57 44.19,12.2 283.82,32.79 337.59,32.79l-793.65 26.46c81.75,-170.39 -22.61,-575.75 -132.66,-637.95 -100.86,-57 -224.13,38.63 -229.94,137.42 -3.67,62.45 71.59,182.23 71.59,341.8z"/>
   <path class="fil0" d="M6137.44 3545.5c76.98,51.55 155.77,130.06 238.09,185.19 147.68,-220.55 775.32,-701.85 1190.48,-502.65 25.67,-53.51 100.33,-251.54 105.82,-317.46 -90.44,-7.53 -237.26,-52.91 -317.46,-52.91 -471.26,0 -1029.31,407.64 -1216.93,687.83z"/>
   <path class="fil0" d="M6613.63 2434.39l205.41 217.86c161.63,-110.54 519.66,-561.77 985.06,-561.77 117.44,0 103.65,26.45 238.1,26.45 27.49,-118 75.95,-137.73 79.36,-291 -322.04,-26.8 -427.56,-118.7 -891.03,114.26 -183.32,92.14 -516.33,344 -616.9,494.2z"/>
  </g>
 </g>
</svg>
