<?xml version="1.0" encoding="UTF-8"?>
<!DOCTYPE svg PUBLIC "-//W3C//DTD SVG 1.1//EN" "http://www.w3.org/Graphics/SVG/1.1/DTD/svg11.dtd">
<!-- Creator: CorelDRAW -->
<svg xmlns="http://www.w3.org/2000/svg" xml:space="preserve" width="73.8348mm" height="144.51mm" version="1.1" style="shape-rendering:geometricPrecision; text-rendering:geometricPrecision; image-rendering:optimizeQuality; fill-rule:evenodd; clip-rule:evenodd"
viewBox="0 0 7383.48 14451.02"
 xmlns:xlink="http://www.w3.org/1999/xlink"
 xmlns:xodm="http://www.corel.com/coreldraw/odm/2003">
 <defs>
  <style type="text/css">
   <![CDATA[
    .fil0 {fill:#4A4A49}
   ]]>
  </style>
 </defs>
 <g id="Capa_x0020_1">
  <metadata id="CorelCorpID_0Corel-Layer"/>
  <path class="fil0" d="M3628.64 13576.74c456.29,0 746.26,188.47 1149.74,346.16l148.59 77.21 -2483.76 0c68.23,-59.31 183.76,-88.56 270.33,-124.82 260.87,-109.27 627.76,-298.55 915.1,-298.55zm-225.8 -5419.14l536.27 0c-3.85,173.02 -169.35,704.47 -169.35,1665.26l0 3302.28 -197.57 0c0,-846.02 47.54,-3644.18 -51.37,-4323.45 -21.07,-144.71 -76.74,-551.81 -117.98,-644.09zm-2907.14 -7056.16c0,102.2 70.92,225.8 225.8,225.8 212.56,0 230.24,-195.6 285.85,-363.32 51.24,-154.54 127.66,-348.15 165.75,-511.65l5023.98 0 257.55 786.77c320.28,1002.28 476.29,1926.7 476.29,3051.79 -445.02,0 -931.41,-91.7 -931.41,225.79 0,302.03 567.53,225.8 874.97,225.8 -4.09,183.47 -90.51,454.96 -137.3,596.54 -67.01,202.74 -147.3,338.87 -238.58,523.49 -155.01,313.48 -579.62,790.58 -862.1,1000.73 -448.66,333.77 -1269.21,842.83 -1810.29,842.83 -619.22,0 -807.1,-95.26 -1373.65,-376.28 -174.13,-86.37 -325.51,-174.21 -477.26,-284.8 -445.89,-324.93 -817.08,-665.4 -1093.7,-1164.27 -132.73,-239.35 -385.9,-796.85 -385.9,-1138.24l4628.85 0c455.67,0 333.14,-451.59 141.12,-451.59l-4826.41 0c0,-777.28 55.85,-1274.25 204.72,-1996.97 14.21,-68.98 55.7,-200.41 31.43,-270.71 -24.62,-71.28 -105,-159.64 -207.93,-159.64 -215.03,0 -233.31,187.47 -270.7,378.46 -408.3,2085.59 -314.94,3955.75 1557.66,5193.17 92.68,61.24 160.1,113.97 256.14,167.22 220.77,122.41 689.68,362.22 912.44,414.12 3.76,168.71 81.23,400.56 109.23,568.17l76.47 600.92c39.53,266.45 11.88,3614.55 11.88,4052.47 -120.03,9.99 -372.64,135.51 -491.92,185.47 -170.12,71.27 -310.57,125.61 -477.37,200.03 -524.54,234.01 -837.09,254.39 -837.09,574.14 0,139.5 114.52,254.02 254.02,254.02l4233.7 0c180.6,0 254.02,-137.87 254.02,-310.47 0,-199.61 -220.08,-260.55 -378.81,-326.81l-1357.51 -561.76c-64.11,-29.16 -98.28,-16.97 -98.28,-99.29l0 -3499.86c0,-517.57 64.83,-965.65 174.5,-1434.3 84.98,-363.1 174.77,-162.23 981.78,-627.03 102.07,-58.78 215.85,-139.33 322.93,-213.33 296.66,-205.02 237.86,-178.82 448.74,-369.78 1509.85,-1367.21 1386.62,-3347.18 922.74,-5202.01 -73.78,-295.02 -338,-1276.56 -474.66,-1529.3 -64.26,-118.86 -234.37,-277.08 -400.31,-277.08l-5023.98 0c-227.87,0 -382.03,213.58 -455.56,419.41 -25.48,71.34 -221.84,643.57 -221.84,681.35z"/>
 </g>
</svg>
