<?xml version="1.0" encoding="UTF-8"?>
<!DOCTYPE svg PUBLIC "-//W3C//DTD SVG 1.1//EN" "http://www.w3.org/Graphics/SVG/1.1/DTD/svg11.dtd">
<!-- Creator: CorelDRAW -->
<svg xmlns="http://www.w3.org/2000/svg" xml:space="preserve" width="122.75mm" height="127.05mm" version="1.1" style="shape-rendering:geometricPrecision; text-rendering:geometricPrecision; image-rendering:optimizeQuality; fill-rule:evenodd; clip-rule:evenodd"
viewBox="0 0 12275.04 12704.98"
 xmlns:xlink="http://www.w3.org/1999/xlink"
 xmlns:xodm="http://www.corel.com/coreldraw/odm/2003">
 <defs>
  <style type="text/css">
   <![CDATA[
    .fil0 {fill:#4A4A49}
   ]]>
  </style>
 </defs>
 <g id="Capa_x0020_1">
  <metadata id="CorelCorpID_0Corel-Layer"/>
  <g id="_1742373758608">
   <path class="fil0" d="M6764.3 3814.53c-555.13,-293.74 -923.63,-423.28 -1587.3,-423.28 -552.64,0 -1029.8,194 -1428.51,476.25 -131.19,92.87 -239.31,203.14 -370.43,290.95 -135.71,-90.88 -255.92,-223.11 -396.82,-317.46l96.9 -220.56c78.12,-159.72 181.02,-440.82 -123.36,-440.82 -195.79,0 -246.29,209.41 -317.46,343.92 -96.21,-25.69 -57.01,-22.6 -127,-84.64 -104.8,-92.91 -243.88,-259.28 -402.1,-259.28 -127.97,0 -211.64,83.67 -211.64,211.64 0,183.55 423.79,456.09 561.45,576.12 168.28,146.73 505.29,366.11 629.03,534.99 -64.47,121.83 -136.8,201.75 -203.06,326.05 -67.07,125.81 -115.85,231.05 -167.66,361.43 -179.08,450.67 -184.84,885.05 -184.84,1376.01 0,127.97 83.67,211.64 211.64,211.64 248.29,0 213.06,-231.29 211.48,-476.35 -1.39,-214.43 22.53,-438.46 63.87,-623.96 83.17,-373.09 246.89,-685.3 438.39,-937.27 783.75,-1031.23 2277.36,-1224.54 3286.03,-401.35 94.64,77.23 97.27,130.68 132.92,263.91 89,332.65 254.99,645.25 466.25,909.41 94.77,118.49 232.21,202.76 243.28,365.18 9.08,133.23 36.86,238.51 22.29,366.88 -76.03,669.86 -253.11,1073.71 -654.43,1516.12l-332.89 275.57c-369.82,274.65 -690.61,731.45 -703.5,1280.63 -7.13,303.36 -10.64,458.27 -94.18,699.47 -137.51,397.05 -395.08,655.53 -751.29,836.01 -381.91,193.49 -806.69,185.8 -1194.93,30.55 -494.27,-197.65 -807.45,-651.66 -895.56,-1167.93 -80.91,-474.09 -26.84,-1468.28 -26.08,-2037.41 0.33,-245 37.48,-476.18 -211.65,-476.18 -249.13,0 -211.98,231.18 -211.65,476.18 0.41,311.44 29.62,1491.16 -1.65,1717.93 -20.49,148.6 -623.3,827.53 -742.73,976.84 -109.88,137.36 -525.45,693.44 -525.45,850.21 0,233.13 269.01,317.84 455.46,32.18 63.18,-96.79 118.57,-179.35 179.46,-270.27 158.7,106.26 304.82,370.65 422.28,530.1 133.33,181 424.28,190.26 424.28,-80.37 0,-169.2 -447.4,-658.59 -555.55,-820.1 25.36,-94.98 128.44,-202.36 193.49,-282.7 56.64,-69.94 174.4,-232.28 229.79,-272.86 168.16,721.82 953.88,1375.66 1719.57,1375.66 611.47,0 931.36,-136.51 1376.01,-475.84l264.6 -290.95c534.79,-740.36 235.25,-1192.22 475.79,-1693.52 100.64,67.38 610.2,343.91 714.29,343.91 124.2,0 238.09,-48.47 238.09,-211.64 0,-183.48 -186.35,-225.51 -317.46,-291.01 -140.04,-69.95 -285.34,-138.65 -423.28,-211.63 200.33,-299.17 1375.66,-795.38 1375.66,-2460.32 583.23,308.6 944.76,423.28 1640.21,423.28 838.02,0 1616.42,-517.86 2082.73,-1144.78 109.63,-147.39 162.61,-252.09 245.42,-415.96 667.41,-1320.76 -104.38,-2883.7 -396.93,-2883.7 -168.68,0 -238.1,110.82 -238.1,264.55 0,37.97 141.91,247.81 174.13,302.06 425.07,715.82 377.53,1774.59 -105.67,2438.35 -78.23,107.45 -170.92,231.83 -259.68,322.33 -1428.59,1456.52 -3988.67,499.61 -3988.67,-1687.08 0,-813.99 430.83,-1477.52 999.52,-1857.62 1469.5,-982.19 2645.57,58.68 2757.09,58.68 240.69,0 365.89,-239.78 175.76,-387.4 -175.2,-136.03 -345.6,-225.93 -560.97,-312.05 -1815.84,-726.09 -3794.68,589.2 -3794.68,2551.3z"/>
   <path class="fil0" d="M-8.18 216.65c0,100.33 156.39,600.02 194.39,731.53 72.54,251.06 137.9,473.57 206.78,719.15 66.78,238.08 13.06,619.11 21.23,904.69 3.77,131.68 35.23,274.07 52.32,397.42 20.39,147.17 37.56,265.6 58.95,417.24 129.03,915.12 67.1,620.51 399.85,1452 134.64,336.44 95.94,350.71 383.95,541.98 109.61,72.79 463.52,338.63 587.29,338.63 146.87,0 406.84,-209.66 0.13,-476.32 -563.71,-369.58 -412.31,-197.23 -669.1,-838.83 -155.66,-388.92 -161.45,-332.84 -222.57,-756.27l-113.75 -891.54 5582.01 0c283.97,0 283.97,-423.28 0,-423.28l-5634.92 0 0 -423.28 6005.29 0c127.96,0 211.64,-83.67 211.64,-211.64 0,-274.84 -309.1,-211.65 -582.01,-211.64l-5687.83 0c-16.43,-197.41 -260.24,-811.69 -264.55,-1005.29 297.95,24.79 914.21,158.73 1164.02,158.73 423.87,0 1453.41,-152.62 1958.29,-185.8 552.93,-36.35 2620.81,397.44 3121.07,397.44 188.88,0 1410.47,-415.8 1586.52,-424.06 406.9,-19.09 1057.06,2.62 1510.21,2.28 438.75,-0.34 327.17,-424.78 77.87,-424.78l-1693.12 0c-106.4,0 -275.3,64.07 -381.8,94.39 -138.22,39.34 -233.62,66.89 -370.37,105.82 -138.22,39.34 -233.62,66.88 -370.37,105.82 -527.83,150.28 -472.85,94.52 -1114.68,-0.02 -254.25,-37.45 -464.35,-65.67 -717.81,-102.3l-1462.95 -203.71 -1859.41 177.65c-527.36,67.49 -1336.1,-177.65 -1791.38,-177.65 -103.64,0 -185.19,98.43 -185.19,211.64z"/>
   <path class="fil0" d="M415.1 7174.32c0,154.88 54.36,321.13 85.99,469.56l310.84 1435.2c0,162.94 -244.55,1057.37 -301.62,1285.68 -35.21,140.87 -95.21,311.84 -95.21,460.35l0 1666.66c0,340.03 427.74,170.79 603.13,126.94 577.57,-144.41 414.27,-125.06 1082.48,-13.61 772.63,128.85 601.31,123.71 1375.06,10.84 382.2,-55.76 2377.79,-335.8 2524.53,-314.3l1769.29 295.95c914.83,151.97 793.4,105.82 1746.03,105.82 389.17,0 118.73,-586.88 11.43,-963.81 -233.79,-821.32 -239.07,-559.83 -101.98,-1322.51 49.23,-273.89 302.19,-1572.24 302.19,-1734.84 0,-117.82 -248.47,-1041.95 -296.21,-1238.18 -99.66,-409.67 -188.32,-316.7 -326.15,-310.78l-37.98 0.32c-192.76,-25.37 -160.57,-258 -560.4,274.99 -67.7,90.23 -260.74,306.71 -260.74,427.09 0,210.19 245.8,290.78 390.29,125.74 115.96,-132.44 260.08,-412.01 376.91,-443.2 5.02,225.52 264.55,958.45 264.55,1164.02 0,153.32 -47.54,354.85 -72.56,483 -31.98,163.83 -60.29,311.91 -86.17,469.38 -35.01,212.96 -158.73,779.11 -158.73,952.38 -213.38,-49.71 -719.4,-634.92 -925.93,-634.92 -149.22,0 -383.12,196.72 -38.07,461.35 189.9,145.63 879.73,650.94 932.78,813.25 39.34,120.33 63.38,224.93 99.15,350.59 69.23,243.22 141.23,465.13 196.62,702.85 -317.02,0 -612.92,13.48 -892,-33.93 -370.85,-63 -2208,-389.35 -2441.33,-389.35l-3065 402.5c-228.91,28.19 -1031.76,-190.86 -1352.99,-190.86 -202.13,0 -424.22,127.58 -634.92,132.28l0 -1269.84c0,-110.88 366.72,-1648.7 430.2,-1739.11 36.61,-52.14 169.53,-170.14 224.56,-225.18 81.39,-81.39 143.21,-143.73 224.89,-224.84 73.98,-73.46 178.55,-139.81 178.55,-271.19 0,-127.97 -83.67,-211.64 -211.64,-211.64 -178.78,0 -367.04,306.02 -502.64,396.83 -27.33,-56.96 -317.46,-1364.68 -317.46,-1455.03 0,-67.52 153.65,-546.76 181.91,-638.19l188.46 -658.1c0,-149.8 -200.87,-264.21 -348.84,-164.97 -102.66,68.86 -288.3,775.29 -333.39,937.77 -29.95,107.91 -137.88,410.43 -137.88,497.04z"/>
   <path class="fil0" d="M3801.34 9449.45l0 -3174.6c0,-907.66 555.75,-1481.31 1413.56,-1604.13 177.13,-25.36 477.92,52.48 612.81,106.86 189.02,76.2 335.93,168.27 467.42,299.77 159.29,159.28 214.88,230.85 319.72,447.48 351.08,725.42 64.2,1382.72 -520.26,1852.79 -415.16,333.9 -616.77,602.03 -838.12,1093.09 -341.63,757.87 -17.2,1163.95 -402.2,1529.02 -169.16,160.39 -471.82,202.91 -701.59,77.21 -200.26,-109.54 -351.34,-328.46 -351.34,-627.49zm-423.28 -3386.24l0 3492.06c0,512.08 496.36,1031.74 1005.29,1031.74l132.28 0c469.97,0 855.23,-411.69 953.81,-792.21 52.97,-204.47 26.35,-559.05 79.28,-793.74 233.55,-1035.51 856.52,-1210.51 1197.47,-1633.21 602.22,-746.63 595.17,-1717.07 0.05,-2450.6 -42.33,-52.17 -59.61,-84.65 -106.53,-131.57 -109.14,-109.14 -373.89,-290.17 -515.16,-357.86 -516.85,-247.66 -1100.8,-262.72 -1618.11,-14.01 -117.54,56.51 -185.56,93.95 -287.59,162.15l-265.73 210.46c-43.95,40.22 -60.36,71.46 -95.48,116.16 -39.72,50.54 -64.81,78.32 -105.68,132.41 -195.63,259 -373.9,668.89 -373.9,1028.22z"/>
   <path class="fil0" d="M9171.71 3946.81c0,-329.17 -34.95,-305.67 150.04,-405.51 373.71,-201.69 167.56,-30.2 511.33,61.59l0 423.28c-343.77,91.79 -137.62,263.28 -511.33,61.59 -60.84,-32.84 -150.04,-69.82 -150.04,-140.95zm-291.01 -1825.4c0,221.65 423.28,409.89 423.28,555.56 0,479.29 33.06,345.86 -200.02,488.57 -99.31,60.81 -102.24,99.57 -267.8,6.48 -54.26,-30.51 -123.82,-68.84 -167.61,-97.72 -156.33,-103.09 -106.27,-375.82 -218.53,-575.12 -129.38,-229.67 -423.31,-76.01 -410.29,118.28 7.47,111.53 89.75,277.43 100.23,403.42 -179.2,85.99 -529.1,67.02 -529.1,317.46 0,79.79 107.87,211.64 185.19,211.64 220.3,0 366.35,-105.4 539.14,-122.43 75.82,-7.47 413.24,154.51 413.24,254.71 0,378.35 28.94,309.15 -166.67,415.35 -76.03,41.28 -141.61,106.45 -226.36,105.55 -135.25,-1.42 -345.95,-124.08 -559.35,-124.08 -132.94,0 -342.24,329.49 15.75,433.98 103.22,30.12 250.69,57.95 328.16,95.12 -12.89,154.88 -281.06,634.92 158.73,634.92 245.41,0 203.37,-565.09 353.75,-677.99 33.41,-25.08 123.2,-73.08 166.65,-98.27 190.72,-110.59 169.67,-61.08 353.49,34.62 167.49,87.2 131.4,59.97 131.4,450.64 0,145.66 -423.28,333.9 -423.28,555.55 0,127.97 83.67,211.64 211.64,211.64 170.51,0 301.42,-235.86 423.28,-317.46 121.86,81.6 252.77,317.46 423.28,317.46 127.97,0 211.64,-83.67 211.64,-211.64 0,-221.65 -423.28,-409.89 -423.28,-555.55 0,-386.99 -34.97,-350.31 115.99,-439.58 201.16,-118.96 187.52,-147.87 351.83,-55.48 295.13,165.94 228.75,108 320.03,474.4 139.12,558.41 487.49,245.68 476.4,80.16 -7.47,-111.53 -89.75,-277.43 -100.23,-403.42 163.55,-78.48 529.1,-65.98 529.1,-317.46 0,-79.79 -107.87,-211.64 -185.18,-211.64 -220.31,0 -366.36,105.4 -539.15,122.43 -101.68,10.02 -158.32,-53.84 -229.54,-94.47 -210.61,-120.15 -183.69,-29.34 -183.69,-424.78 0,-107.87 353.12,-256.78 393.02,-256.36 135.25,1.42 345.95,124.08 559.36,124.08 122.5,0 350.91,-313.96 -15.03,-434.71 -104.06,-34.34 -250.21,-56.64 -328.89,-94.39 9.78,-117.47 67.44,-232.03 92.71,-360.41 46.32,-235.25 -331.22,-502.03 -463.59,15.98 -93.84,367.26 -21.14,319.29 -308.25,485.77 -177.34,102.83 -166.42,71.74 -351.97,-36.14 -169.1,-98.32 -132.92,-59.19 -132.92,-449.11 0,-145.67 423.28,-333.91 423.28,-555.56 0,-127.97 -83.67,-211.64 -211.64,-211.64 -170.51,0 -301.42,235.86 -423.28,317.46 -121.86,-81.6 -252.77,-317.46 -423.28,-317.46 -127.97,0 -211.64,83.67 -211.64,211.64z"/>
   <path class="fil0" d="M5071.18 6142.57c0,-267.27 423.28,-267.27 423.28,0 0,267.27 -423.28,267.27 -423.28,0zm-423.28 -52.91c0,922.18 1269.84,922.18 1269.84,0 0,-323.83 -278.07,-582.01 -687.83,-582.01 -291.03,0 -582.01,290.98 -582.01,582.01z"/>
  </g>
 </g>
</svg>
