<?xml version="1.0" encoding="UTF-8"?>
<!DOCTYPE svg PUBLIC "-//W3C//DTD SVG 1.1//EN" "http://www.w3.org/Graphics/SVG/1.1/DTD/svg11.dtd">
<!-- Creator: CorelDRAW -->
<svg xmlns="http://www.w3.org/2000/svg" xml:space="preserve" width="122.751mm" height="122.341mm" version="1.1" style="shape-rendering:geometricPrecision; text-rendering:geometricPrecision; image-rendering:optimizeQuality; fill-rule:evenodd; clip-rule:evenodd"
viewBox="0 0 12275.12 12234.06"
 xmlns:xlink="http://www.w3.org/1999/xlink"
 xmlns:xodm="http://www.corel.com/coreldraw/odm/2003">
 <defs>
  <style type="text/css">
   <![CDATA[
    .fil0 {fill:#4A4A49}
   ]]>
  </style>
 </defs>
 <g id="Capa_x0020_1">
  <metadata id="CorelCorpID_0Corel-Layer"/>
  <g id="_1741988083952">
   <path class="fil0" d="M3246.84 10885.39c83.15,19.37 533.2,236.32 893.56,323.36 987.23,238.46 1707.87,170.39 2648.37,-141.21l452.77 -182.15c394.06,263.87 479.03,821.56 529.1,925.92l-5052.9 0c52.97,-110.41 132.23,-660.17 529.1,-925.92zm5899.46 -1613.76c161.17,-240.68 295.19,-402.06 449.74,-687.83l379.5 -784.51c205.54,-457.55 417.34,-1263.54 467.06,-1860.99 412.49,0 795.67,202.86 1029.55,425.47 24.77,23.58 4.36,0.84 39.41,39.95 4.45,4.97 34.69,42.37 35.67,43.7 393.38,529.86 360.11,1315.08 -45.8,1846.01 -526.22,688.31 -1378.76,978.2 -2355.13,978.2zm-9153.43 -4179.89c0,1522.45 483.4,3143.15 1448.89,4318.3 44.2,53.81 70.52,95.17 118.35,146.2 235.42,251.15 941.43,989.57 1263.45,1064.6 -30.53,131.02 -113.62,169.21 -190.95,285.24 -247.16,370.81 -601.51,1328.51 -152.97,1328.51l5555.55 0c358.28,0 76.15,-850.32 9.27,-988.1 -65.66,-135.28 -177.01,-353.78 -280.8,-459.94 -71.44,-73.08 -89.33,-51.44 -98.84,-165.71 306.96,-81.97 1036.1,-830.37 1090.44,-867.23 63.24,-42.89 704.16,-43.81 917.92,-60.92 545.07,-43.61 1021.48,-219.58 1462.44,-495.23 606.23,-378.96 1132.37,-1042.12 1132.37,-1804.13 0,-584.01 -241.9,-1172.79 -581.44,-1429.14 -265.03,-200.09 -634.74,-402.24 -986.58,-442.02 -316.55,-35.79 -204.46,98.18 -204.46,-456.88 0,-73.69 -111.5,-185.19 -185.19,-185.19l-2433.86 0c-68.52,0 -97.54,13.48 -136.7,48.48 -111.4,99.57 -160.22,401.26 268.98,401.26l2037.03 0c0,1026.09 -355.25,2263.45 -835,3053.88 -87.94,144.88 -152.8,254.51 -244.11,390.81 -49.6,74.06 -82.86,111.9 -132.58,184.88 -1082.4,1588.72 -3212.75,2449.77 -5179.44,1623.99 -318.15,-133.59 -523.56,-261.3 -815.28,-454.56l-697.58 -572.26c-535.27,-585.33 -939.36,-1199.59 -1253.54,-1973.97 -245.56,-605.25 -445.63,-1447.19 -445.63,-2252.77l6322.74 0c535.63,0 328.53,-449.74 158.73,-449.74l-6719.57 0c-127.97,0 -211.64,83.67 -211.64,211.64z"/>
   <path class="fil0" d="M3828.85 9880.1c0,-212.87 -277,-274.8 -506.87,-445.52 -198.08,-147.1 -343.78,-259.5 -518.27,-434.11 -270.54,-270.74 -443.48,-452.63 -646.59,-781.98 -56.08,-90.94 -127.36,-243.15 -259.49,-243.15 -170.08,0 -273.6,162.48 -209.64,312.93 146.17,343.8 743.15,1011.71 1082.43,1274.59 161.44,125.08 514.14,389.76 706.75,485.03 161.89,80.08 351.68,-7.13 351.68,-167.79z"/>
   <path class="fil0" d="M2717.74 2022.96c0,207.02 211.64,226.38 211.64,476.19 0,322.01 -529.1,750.25 -529.1,1243.39 0,213.6 264.08,278.21 386.29,121.74 36.87,-47.21 50.91,-128.23 68.84,-195.71 67.94,-255.75 232.1,-450.36 370.63,-687.57 327.17,-560.18 -44.42,-1169.68 -296.66,-1169.68 -127.97,0 -211.64,83.67 -211.64,211.64z"/>
   <path class="fil0" d="M4596.04 1388.04c0,744.8 563.45,800.04 567.42,446.47 2.07,-183.57 -117.68,-82.22 -117.68,-472.92 0,-230.4 371.67,-468.23 510.91,-1052.82 35.09,-147.35 -15.42,-296.39 -219.91,-296.39 -287.14,0 -105.87,208.19 -412.18,646.02 -156.05,223.05 -328.56,428.38 -328.56,729.64z"/>
   <path class="fil0" d="M7188.63 2128.78c0,329.89 388.76,164.49 -148.32,962.79 -521.74,775.49 -82.15,1001.96 125.48,786.85 84.4,-87.44 51.49,-267.77 238.82,-554.82 79.94,-122.49 146.64,-155.95 225.54,-303.56 226.08,-422.96 92.26,-1102.9 -229.88,-1102.9 -127.97,0 -211.64,83.67 -211.64,211.64z"/>
   <path class="fil0" d="M7056.36 1917.14c363.16,0 185.18,-282.8 185.18,-555.55 0,-152.95 286.68,-523.03 365.29,-666.46 62.21,-113.51 103.97,-231.53 139.69,-365.15 97.75,-365.61 -338.84,-411.62 -414.5,-174.21 -43.57,136.7 5.52,88.35 -89.98,280.39 -157.73,317.15 -470.86,567.93 -446.76,1000.89 10.74,192.81 49.13,480.09 261.08,480.09z"/>
   <path class="fil0" d="M4596.04 3742.54c0,213.6 264.08,278.21 386.29,121.74 80.5,-103.06 24.15,-257.42 255.84,-564.27 245.55,-325.19 310.25,-456.58 310.25,-906.68 0,-234.53 -320.98,-293.72 -415.36,-96.09 -68.87,144.2 61.22,322.74 -173.51,644.79 -149.7,205.38 -363.51,463.33 -363.51,800.51z"/>
   <path class="fil0" d="M2400.28 1414.5c0,187.12 171.3,185.18 264.55,185.18 154.22,0 170.98,-238.26 218.46,-363.55 61.55,-162.45 125.42,-232.02 220.11,-361.9 99.11,-135.94 142.76,-208.96 200.11,-381.9 46.84,-141.25 128.4,-330.71 -14.8,-443.7 -120.78,-95.29 -293.87,-44.28 -344.11,111.25 -221.42,685.5 -188.65,351.83 -410.64,779.83 -56.88,109.67 -133.68,312.48 -133.68,474.79z"/>
   <path class="fil0" d="M1024.62 6573.22c0,174.31 108.67,472.06 155.16,612.03 66.2,199.26 132.35,472.63 321.03,472.63 418.26,0 114.73,-539.49 88.67,-617.78 -43.51,-130.72 -82.14,-264.28 -114.86,-387.78 -122.2,-461.32 -450,-227.36 -450,-79.1z"/>
  </g>
 </g>
</svg>
