<?xml version="1.0" encoding="UTF-8"?>
<!DOCTYPE svg PUBLIC "-//W3C//DTD SVG 1.1//EN" "http://www.w3.org/Graphics/SVG/1.1/DTD/svg11.dtd">
<!-- Creator: CorelDRAW -->
<svg xmlns="http://www.w3.org/2000/svg" xml:space="preserve" width="60.6218mm" height="132.642mm" version="1.1" style="shape-rendering:geometricPrecision; text-rendering:geometricPrecision; image-rendering:optimizeQuality; fill-rule:evenodd; clip-rule:evenodd"
viewBox="0 0 6062.18 13264.24"
 xmlns:xlink="http://www.w3.org/1999/xlink"
 xmlns:xodm="http://www.corel.com/coreldraw/odm/2003">
 <defs>
  <style type="text/css">
   <![CDATA[
    .fil0 {fill:#4A4A49}
   ]]>
  </style>
 </defs>
 <g id="Capa_x0020_1">
  <metadata id="CorelCorpID_0Corel-Layer"/>
  <g id="_1742145938864">
   <path class="fil0" d="M439.65 12465.49l0 -6761.65c0,-764.25 280.92,-1212.59 544.04,-1709.85 579.85,278.23 417.57,388.61 1088.08,388.61 157.96,0 372.32,-113.87 466.55,-181.12 398.73,-284.56 585.27,-284.56 984,0 339.96,242.61 809.39,249.26 1161.26,20.91 249.92,-162.2 121.37,-97.88 393.37,-228.4 263.12,497.26 544.04,945.6 544.04,1709.85l0 6761.65c0,186.77 -130.46,362.7 -310.88,362.7l-4559.58 0c-180.42,0 -310.88,-175.93 -310.88,-362.7zm1554.4 -8523.31c-507.13,0 -473.88,-260.08 -803.11,-336.79 44.47,-190.88 803.11,-1532.42 803.11,-1683.93l0 -647.67 2072.54 0c0,904.71 -66.03,567.41 397.24,1493.95l405.87 837.65c-329.23,76.71 -295.98,336.79 -803.11,336.79 -407.1,0 -340.9,-388.6 -1113.99,-388.6 -475.81,0 -617.41,388.6 -958.55,388.6zm-284.97 -3497.41l2642.48 0 0 388.61 -2642.48 0 0 -388.61zm-414.51 -233.16l0 906.74c0,110.62 134.41,155.44 259.07,155.44 0,820.66 39.83,516.18 -440.42,1476.68 -153.29,306.58 -300.73,601.47 -457.68,915.37 -329.06,658.12 -656.31,1136.43 -656.31,2115.72l0 6580.3c0,276.55 60.97,461.26 183.92,619.2 99.65,127.99 320.72,287.54 541.47,287.54l4611.4 0c414.43,0 725.39,-394.68 725.39,-906.74l0 -6580.3c0,-975.26 -323.98,-1451.06 -647.67,-2098.45 -109.64,-219.26 -906.74,-1762.17 -906.74,-1865.28l0 -544.04c124.66,0 259.07,-44.82 259.07,-155.44l0 -906.74c0,-125.31 -81.94,-207.25 -207.25,-207.25l-3057 0c-125.31,0 -207.25,81.94 -207.25,207.25z"/>
   <path class="fil0" d="M854.16 5600.21l0 4896.37c0,285.93 382.51,324.07 435.17,46.57l5.24 -4269.36c0,-483.44 -49.29,-651.57 66.62,-1099.19 28.19,-108.86 88.82,-206.94 88.82,-299.78 0,-226.21 -290.83,-301.64 -414.94,-78.15 -103.07,185.6 -180.91,581.66 -180.91,803.54z"/>
   <path class="fil0" d="M854.16 11377.41l0 829.01c0,264.92 440.41,334.39 440.41,-51.81l0 -777.2c0,-306.28 -440.41,-302.46 -440.41,0z"/>
   <path class="fil0" d="M2641.72 2128.71l777.2 0c296.89,0 296.89,-440.41 0,-440.41l-777.2 0c-296.89,0 -296.89,440.41 0,440.41z"/>
  </g>
 </g>
</svg>
