<?xml version="1.0" encoding="UTF-8"?>
<!DOCTYPE svg PUBLIC "-//W3C//DTD SVG 1.1//EN" "http://www.w3.org/Graphics/SVG/1.1/DTD/svg11.dtd">
<!-- Creator: CorelDRAW -->
<svg xmlns="http://www.w3.org/2000/svg" xml:space="preserve" width="126.984mm" height="114.456mm" version="1.1" style="shape-rendering:geometricPrecision; text-rendering:geometricPrecision; image-rendering:optimizeQuality; fill-rule:evenodd; clip-rule:evenodd"
viewBox="0 0 12698.4 11445.56"
 xmlns:xlink="http://www.w3.org/1999/xlink"
 xmlns:xodm="http://www.corel.com/coreldraw/odm/2003">
 <defs>
  <style type="text/css">
   <![CDATA[
    .fil0 {fill:#4A4A49}
   ]]>
  </style>
 </defs>
 <g id="Capa_x0020_1">
  <metadata id="CorelCorpID_0Corel-Layer"/>
  <g id="_1741986347568">
   <path class="fil0" d="M4021.16 8483.23c0,-646.7 299.97,-1347.79 733.98,-1779.24 206.63,-205.41 470.58,-398.38 747.77,-522.07 2104.28,-938.99 4290.53,1126.92 3375.01,3322.1 -447.44,1072.86 -1689.98,1720.01 -2856.78,1450.13 -472.98,-109.41 -899.16,-326.32 -1239.9,-664.86 -458.79,-455.82 -760.08,-1150.06 -760.08,-1806.06zm8253.96 -634.92c0,687.84 -279.35,1308.89 -823.58,1716.1 -590.67,441.95 -1669.35,730.17 -2403.93,559.03 12.91,-48.35 203.04,-331.57 314.38,-664.45 342.05,-1022.6 144.52,-2097.48 -533.7,-2899.29 -351.98,-416.12 -784.38,-695.3 -1288.34,-880.98 -80.23,-29.56 -162.62,-42.74 -238.37,-79.08 183.11,-346.06 381.96,-732.17 532.93,-1107.28 160.7,-399.27 244.82,-853 471.94,-1194.73 130.15,-195.84 201.14,-285.43 393,-427.11 142.91,-105.52 367.2,-226.96 575.17,-271.39 777.55,-166.13 1440.22,437.64 1685.26,1141.14 117.81,338.24 165.48,549.22 320.92,922.47 45.72,109.79 89.71,178.61 138.75,284.53 212.28,458.42 521.08,937.95 659.57,1430.38 60.72,215.93 115.35,448.65 141.01,679.09 26.74,240.07 54.99,537.01 54.99,791.57zm-8677.24 502.65c0,446.54 28.78,862.29 211.64,1243.38 -315.55,0 -450.99,-264.55 -634.92,-264.55 -177.23,0 -1129.63,1086.83 -2243.22,-957.83 -401.11,-736.47 -631.83,-2059.66 -429.37,-2905.24 52.76,-220.38 126.27,-396.25 238.46,-555.18 688.19,-974.84 2208.32,-237.83 2460.59,-237.83 106.45,0 1506.54,-640.75 2262.92,65.11 173.72,162.11 384.44,565.29 409.03,860.82 -505.39,42.05 -1225.66,561.45 -1567.31,945.91 -79.02,88.91 -198.72,253.96 -256.99,351.48 -80.79,135.19 -153.71,260 -216.84,418.08 -116.69,292.2 -233.99,622.07 -233.99,1035.85zm-2222.22 -6137.56l26.46 -449.74c134.22,11.17 373.12,119.83 485.21,176.16 395.51,198.79 659.25,430.03 882.6,810.52l113.67 230.25c-433.48,0 -1080.03,-27 -1339.06,-354.07 -82.06,-103.62 -168.88,-241.44 -168.88,-413.12zm5105.82 -264.55c148.3,-221.48 264.67,-439.16 443.31,-641.35 549.02,-621.39 1251.89,-991.98 2094.77,-812.08 80.02,17.08 153.09,44.1 239.69,51.31 -37.55,451.29 -536.52,915.88 -977.7,1112.24 -534.48,237.89 -1030.24,289.88 -1800.07,289.88zm-555.56 185.18c0,292.76 399.18,225.31 551.66,241.99 797.57,87.24 2013.48,-141.03 2603.64,-711.02 81.94,-79.14 140.48,-158.23 230.94,-218.8l0 714.29c-315.53,0 -760,256.43 -997.61,457.41 -618.53,523.19 -660.84,1217.71 -986.86,1949.65l-369.99 741.12c-130.31,264.24 -18.5,211.6 -661.41,211.6 -5.8,-260.36 -204.26,-687.36 -317.2,-846.82 -180.19,-254.38 -344.06,-385.64 -634.72,-529.3 -772.06,-381.62 -1691.78,-21.7 -1958.13,0.46 0,-902.19 113.37,-1230.34 -498.48,-1988.29 -324.21,-401.64 -1155.65,-868.85 -1644.37,-868.85 -343.14,0 -927.1,2142.86 1481.48,2142.86l238.09 0 0 714.28c-141.05,-11.74 -508.87,-162.6 -1087.13,-179.93 -1147.71,-34.4 -1875.83,845.37 -1875.83,1978.87 0,974.35 95.08,1725.16 520.28,2574.95 268.56,536.74 699.39,1150.75 1270.52,1401.44 806.55,354.04 1307.43,-87.5 1383.8,-87.5 42.2,0 115.63,59.86 177.19,87.35 207.13,92.51 478.7,174.87 695.83,124.29 64.34,240.98 667.62,796.27 927.02,951.28 1080.09,645.45 2333.99,608.99 3358.9,-130.96 614.91,-443.94 129.84,-353.98 713.9,-291.05 920.17,99.15 1985.59,-107.69 2702.83,-683.76 542.12,-435.42 948.13,-1118.02 948.13,-1856.09 0,-1410.89 -113.25,-1733.63 -687.83,-2883.6 -117.29,-234.75 -246.99,-457.02 -348.02,-710.18 -47.1,-118.05 -92.03,-225.17 -138.27,-364.37 -227.95,-686.19 -332.55,-1152.04 -1017.29,-1628.22 -144.17,-100.26 -538.39,-286.64 -771.55,-286.64l0 -1931.22c0,-127.97 -83.67,-211.64 -211.64,-211.64 -120.2,0 -137.99,56.5 -211.64,105.82 -498.63,-239.26 -1331.7,-72.14 -1772.49,132.27 -469.2,217.58 -927.47,696.61 -1211.96,1116.08 -82.92,122.25 -401.79,612.98 -401.79,762.23z"/>
   <path class="fil0" d="M5714.28 6578.47c0,364.18 486.17,64.81 582.01,476.19 -177.83,14.8 -582.01,318.09 -582.01,634.92 0,140.25 164.75,158.73 264.55,158.73 156.57,0 231.16,-442.27 603.41,-416.86 383.67,26.19 354.77,416.86 613.52,416.86 480.09,0 26.73,-760.61 -370.37,-793.65 95.84,-411.38 582.01,-112.01 582.01,-476.19 0,-222.47 -189.98,-211.64 -317.46,-211.64 -230.23,0 -391.92,146.23 -529.1,238.1 -257.71,-172.58 -289.37,-238.1 -634.92,-238.1 -127.97,0 -211.64,83.67 -211.64,211.64z"/>
   <path class="fil0" d="M7830.68 8271.59c0,283.97 423.28,283.97 423.28,0 0,-283.97 -423.28,-283.97 -423.28,0z"/>
   <path class="fil0" d="M7195.76 8906.51c0,283.97 423.28,283.97 423.28,0 0,-283.97 -423.28,-283.97 -423.28,0z"/>
   <path class="fil0" d="M7830.68 9541.43c0,283.97 423.28,283.97 423.28,0 0,-283.97 -423.28,-283.97 -423.28,0z"/>
   <path class="fil0" d="M7195.76 10176.35c0,283.97 423.28,283.97 423.28,0 0,-283.97 -423.28,-283.97 -423.28,0z"/>
  </g>
 </g>
</svg>
