<?xml version="1.0" encoding="UTF-8"?>
<!DOCTYPE svg PUBLIC "-//W3C//DTD SVG 1.1//EN" "http://www.w3.org/Graphics/SVG/1.1/DTD/svg11.dtd">
<!-- Creator: CorelDRAW -->
<svg xmlns="http://www.w3.org/2000/svg" xml:space="preserve" width="122.75mm" height="127.05mm" version="1.1" style="shape-rendering:geometricPrecision; text-rendering:geometricPrecision; image-rendering:optimizeQuality; fill-rule:evenodd; clip-rule:evenodd"
viewBox="0 0 12275.04 12704.98"
 xmlns:xlink="http://www.w3.org/1999/xlink"
 xmlns:xodm="http://www.corel.com/coreldraw/odm/2003">
 <defs>
  <style type="text/css">
   <![CDATA[
    .fil0 {fill:#4A4A49}
   ]]>
  </style>
 </defs>
 <g id="Capa_x0020_1">
  <metadata id="CorelCorpID_0Corel-Layer"/>
  <g id="_1741986369696">
   <path class="fil0" d="M8290 10960.63c541.88,362.86 583.79,343.92 1322.75,343.92 197.79,0 443.42,-71.47 581.62,-132.67 456.88,-202.34 672.71,-222.68 1146.79,-8.44 467.82,211.4 1300.73,210.14 1737.96,-69.77 66.94,-42.85 122.63,-91.66 184.42,-133.04 0,453.33 -28.36,670.83 -233.22,930.8 -313.03,397.24 -1117.98,370.33 -1540.02,181.07 -979.61,-439.31 -1312.58,131.52 -2115.64,131.52 -188.74,0 -376.56,-26.13 -507.12,-74.9 -504.28,-188.4 -577.54,-644.28 -577.54,-1168.49zm820.11 -1904.76c1204.13,0 704.03,124.54 1341.37,245.93 814.42,155.11 1006.47,-245.93 1489.31,-245.93 517.06,0 716.65,-61.51 1065.28,283.92 530.4,525.53 130.78,1488.57 -589.09,1488.57 -477.71,0 -587.62,44.8 -996.12,-141.45 -355.46,-162.06 -910.12,-172.57 -1270.27,-8.55 -430.34,195.99 -511.06,150 -1014.03,150 -714.5,0 -1117.06,-961.5 -602.51,-1475.53 150.25,-150.09 333.24,-296.96 576.06,-296.96zm-2619.05 661.38l0 -2037.04 -449.73 0 0 2037.04 -449.74 0 0 -2037.04 -476.19 0 0 2037.04 -423.28 0 0 -2037.04 -476.19 0 0 2037.04c-200.92,-46.81 -423.28,-159.47 -423.28,-396.83l0 -4999.99 3148.15 0 0 1613.75c0,124.95 273.37,229.28 379.18,282.19 156.09,78.03 292.35,146.17 440.92,220.46 301.59,150.79 793.65,321.43 793.65,555.55 0,79.18 -17.73,144.97 -63.41,201.14 -313.75,385.78 -1183.5,-691.95 -1498.11,-334.09 -92.79,105.54 -52.24,407.16 -52.24,609.14l-6.13 1792.81c-40.3,309.39 -153.06,388.18 -443.6,455.87zm-4259.25 -4497.35l1084.65 0 0 3994.7c0,305.82 110.51,529.28 280.01,698.83 130.04,130.07 341.53,253.55 540.1,253.55l2460.31 0c202.99,0 476.71,-181 574.89,-298.13 147.26,-175.68 220.76,-362.28 218.94,-680.53 -3.44,-599.33 -0.18,-1199.67 -0.18,-1799.11 419.08,221.74 1035.77,608.79 1448.21,125.46 88.9,-104.18 192,-313.64 192,-495.83 0,-583.96 -573.06,-749.5 -1137.56,-1031.75 -118.37,-59.18 -383.28,-210.29 -502.65,-238.09l0 -529.1 2433.86 0c0,131.65 -30.78,297.51 -44.95,404.78l-325.42 2531.72c-14.23,128.06 -50.21,302.24 -52.91,423.28 -556.91,0 -953.53,109.33 -1281.79,543.6 -138.8,183.61 -279.05,469.01 -279.05,726.24 0,409.06 -55.68,1623.33 79.36,1904.76l-4841.26 0c0,-118.68 -34.97,-294.35 -48.07,-401.67 -17.9,-146.53 -37.9,-271.51 -53.01,-396.72l-634.92 -4920.63c-18.24,-151.09 -74.32,-734.26 -110.56,-815.36zm5158.72 -899.47l3148.15 0 0 423.28 -3148.15 0 0 -423.28zm-5873.01 0l1798.94 0 0 423.28 -1798.94 0 0 -423.28zm5211.64 -1481.48c0,-68.68 486.88,-555.56 555.55,-555.56l1111.11 0c83.11,0 708.94,669.34 813.49,773.81 273.44,273.23 218.26,169.79 218.26,787.04l-2698.41 0 0 -1005.29zm-4074.07 -555.56l2698.41 0 0 1560.85 -2698.41 0 0 -1560.85zm4735.44 -899.47l899.47 0 0 423.28 -899.47 0 0 -423.28zm-3915.34 -238.09l1058.2 0c78.71,0 244,257.27 291.01,317.45 91.28,116.89 180.33,218.15 264.55,343.92l-2169.31 0c84.21,-125.77 173.26,-227.03 264.55,-343.91 47.35,-60.63 213.09,-317.46 291,-317.46zm79.37 -1587.3l899.47 0 0 1111.11 -899.47 0 0 -1111.11zm3174.6 1349.2c112.94,-235.39 12.12,-457.98 561.71,-972.67 496.92,-465.37 1373.08,-376.53 2057.33,-376.53 126.34,0 79.37,177.11 79.37,502.64 0,94.71 -599.87,530.87 -705.98,616.78 -61.98,50.18 -194.64,170.56 -249.57,200.16 -149.97,80.8 -1449.33,29.62 -1742.86,29.62zm3148.14 -1349.2l449.74 0 0 449.73 -449.74 0 0 -449.73zm-7698.4 2619.04l0 1666.67 -873.02 0c-109.1,0 -238.09,88.92 -238.09,185.18l0 952.38c0,299.64 406.25,238.1 714.28,238.1 0,229.75 372.56,3021.29 408.55,3268.69 154.67,1063.39 275.96,2204.25 422.98,3280.72 74.93,548.7 7.15,434.71 1417.14,434.71 418.98,0 4037.97,-27.97 4140.3,13.13 52.26,20.99 406.83,436.6 965.52,436.6l502.65 0c468.3,0 694.87,-283.44 1137.56,-283.44 442.69,0 669.26,283.44 1137.57,283.44l502.64 0c674.03,0 1296.3,-622.26 1296.3,-1296.29l0 -1507.94c0,-355.56 -230.55,-695.62 -416.16,-880.14 -395.28,-392.93 -767.07,-389.7 -1276.96,-389.7 -705.17,0 -1002.46,508.25 -1702.61,194.67 -114.41,-51.24 -300.29,-138.64 -440.25,-141.76 0,-420.73 423.28,-3074.44 423.28,-3412.69 832.97,0 714.29,65.26 714.29,-1084.66 0,-165.09 -75.7,-291 -238.1,-291l-899.47 0 0 -714.29c0,-181.92 -1137.56,-1100.87 -1137.56,-1243.38l0 -582.01c0,-65.17 23.28,-61.14 62.57,-96.15 14.11,-12.57 67.66,-50.86 89.98,-68.76 61.91,-49.65 134.44,-114.44 191.36,-152.55l582.19 1163.92 392.03 -194.41c-6.02,-118.47 -227.77,-508.36 -295.21,-643.24 -74.97,-149.94 -277.02,-508 -308.64,-643.73 279.58,-74.66 -23.85,-212.08 661.37,-211.65 779.81,0.49 661.38,142.11 661.38,-1137.56 0,-127.97 -83.67,-211.64 -211.64,-211.64l-2354.49 0c-1017.34,0 -1957.67,936.97 -1957.67,2010.58 0,326.74 395.38,264.55 687.83,264.55l0 502.65c0,149.65 -687.83,581.81 -687.83,846.56l0 1111.11 -423.28 0 0 -1666.67c0,-208.5 -41.84,-252.68 -135.55,-367.1l-705.75 -881.55c-122.44,-142.66 -84.97,-200.69 -84.64,-444.46l1.13 -1059.33c1.32,-191.95 -26.59,-316.34 -212.76,-316.34l-1375.66 0c-172.44,0 -213,110.75 -213.14,289.51l1.5 1059.7c0.14,215.57 35.72,330.15 -71.94,457.16l-706.78 880.52c-100.6,125.71 -147.2,160.47 -147.2,381.89z"/>
   <path class="fil0" d="M12125.98 9955.34c571.68,0 476.19,89.51 476.19,-396.82 0,-124.21 -162.53,-79.37 -476.19,-79.37l0 476.19z"/>
   <polygon class="fil0" points="9877.3,9955.34 10327.04,9955.34 10327.04,9479.15 9877.3,9479.15 "/>
   <polygon class="fil0" points="8951.38,10166.98 9427.57,10166.98 9427.57,9717.25 8951.38,9717.25 "/>
   <polygon class="fil0" points="11226.51,10166.98 11676.24,10166.98 11676.24,9717.25 11226.51,9717.25 "/>
  </g>
 </g>
</svg>
