<?xml version="1.0" encoding="UTF-8"?>
<!DOCTYPE svg PUBLIC "-//W3C//DTD SVG 1.1//EN" "http://www.w3.org/Graphics/SVG/1.1/DTD/svg11.dtd">
<!-- Creator: CorelDRAW -->
<svg xmlns="http://www.w3.org/2000/svg" xml:space="preserve" width="140.085mm" height="62.583mm" version="1.1" style="shape-rendering:geometricPrecision; text-rendering:geometricPrecision; image-rendering:optimizeQuality; fill-rule:evenodd; clip-rule:evenodd"
viewBox="0 0 14008.46 6258.3"
 xmlns:xlink="http://www.w3.org/1999/xlink"
 xmlns:xodm="http://www.corel.com/coreldraw/odm/2003">
 <defs>
  <style type="text/css">
   <![CDATA[
    .fil0 {fill:white}
    .fil1 {fill:white;fill-rule:nonzero}
   ]]>
  </style>
 </defs>
 <g id="Capa_x0020_1">
  <metadata id="CorelCorpID_0Corel-Layer"/>
  <path class="fil0" d="M5107.12 3133.15l-1886.27 2.69 1.05 500 1177.34 1.05c-55.58,188.4 -259.02,362.41 -432.7,451.31 -710.3,363.49 -1507.49,-270.7 -1384.08,-1008.14 126.38,-755.18 1008.88,-1081.24 1586.07,-579.91 128.89,111.95 194.29,76.3 375.12,76 137.5,-0.25 281.96,9.84 417.4,-8.79 -187.69,-508.75 -849.8,-993.43 -1607.01,-904.2 -680.82,80.26 -1203.15,580.19 -1347.13,1198.4 -270.95,1163.32 749.17,2105.64 1815.31,1910.22 764.44,-140.15 1321.55,-868.55 1284.9,-1638.63z"/>
  <path class="fil0" d="M10350.5 2278.56c568.95,-117.46 1057.55,304.71 1135.79,766.83 217.87,1286.29 -1660.73,1575.31 -1895.34,364.88 -113.56,-585.78 285.49,-1033.86 759.55,-1131.71zm-1325.34 512.92c-204.99,714.31 109.26,1451.02 759.16,1814.51 869.99,486.57 1794.9,-4.92 2122.22,-604.32 898.35,-1645 -1256.93,-3197.79 -2538.77,-1830.75 -145.65,155.3 -284.74,418.85 -342.61,620.56z"/>
  <path class="fil0" d="M5518.42 4729.45c129.16,38.91 451.33,18.47 603.82,14.46l-1.25 -3045.4 -603.16 14.35 -0.47 2742.78 1.06 273.81z"/>
  <path class="fil0" d="M10941.81 5816.9c490.82,44.35 1533.18,-336.77 1924.09,-596.18 384.57,-255.21 652.35,-500.83 876.2,-936.9 211.69,-412.46 305.82,-970.6 236.97,-1517.25 -33.04,-262.47 -104.47,-506.95 -191.68,-726.87 -47.91,-120.8 -81.69,-194.85 -139.42,-306.49 -49.88,-96.43 -131.86,-203.96 -170.68,-291.08l486.37 -227.6c-168.56,-152.19 -1023.65,-472.13 -1311.17,-562.03 -465.88,-145.68 -1078.19,-279.6 -1626.37,-188.34 772.22,210.75 981.44,709.41 1027.54,1596.31l726.93 -311.27c159.75,175.46 384.4,857.17 441.35,1112.86 257.52,1156.23 -325.34,2012.57 -1259.79,2538.01 -321.39,180.69 -672.12,300.87 -1020.34,416.83z"/>
  <path class="fil0" d="M9121.99 2494.34c56.11,-42.96 -3.42,39.26 50,-48.72 20.68,-34.09 16.87,-36.73 35.37,-85.2l-52.23 -1.17c-100.32,7.07 -82.42,7.34 -106.91,94.49 8.67,5.01 18.71,3.59 21.24,11.87 30.84,101.28 30.98,-43.74 52.53,28.73z"/>
  <path class="fil0" d="M2324.55 5422.79l47.58 52.14c3.78,-2.37 9.89,-5.06 12.04,-5.9l41.79 -14.4c2.95,-0.95 13.85,1.36 16.07,-4.92 2.37,-6.73 11.68,-2.92 17.21,-5.26 -17.15,-84.28 -1.97,-54.53 -40.18,-102.66 -80.86,23.11 -34.14,7.31 -65.7,32.25 -5.51,4.37 -5.04,61.24 -21.8,31.54 -2.15,-3.84 -3.81,11.93 -7.01,17.21z"/>
  <path class="fil0" d="M514.6 4815.77c-101.91,47.07 -449.28,168.17 -488.57,249.59 312.14,87.65 789.13,358.12 1162.97,486.15 424.89,145.48 1322.94,365.35 1760.9,232.27 -840.44,-291.45 -949.02,-716.83 -1008.75,-1575.4 -119.13,-13.4 -576.36,252.4 -742.95,294.34 -533.69,-1059.17 -766.02,-1980.46 -0.97,-2982.01l57.73 -66.9c154.99,-166.04 340.6,-327.37 565.84,-473.64 104.52,-67.87 221.9,-140.45 342.02,-200.15 304.46,-151.27 574.6,-236.75 896.38,-341.36 -107.8,-13.76 -248.39,1.2 -343.33,16.16 -532.08,83.84 -1078.21,255.96 -1536.74,542.79 -817.08,511.17 -1195.59,1194.61 -1186.08,2210.36 5.62,598.6 223.15,1101.32 521.55,1607.8z"/>
  <path class="fil0" d="M7236.27 2181.07c408.23,-18.38 877.58,55.58 872.77,508.86 -4.45,417.11 -465.85,532.31 -878.45,510.04l5.68 -1018.9zm-11.32 1244.05l51.36 -17.74 745.44 1333.64 693.23 4.34c-98.88,-253.77 -673.84,-999.1 -695.67,-1189.66 926.41,-282.35 915.82,-1724.36 -274.01,-1834.98 -336.52,-31.28 -763.41,-34 -1109.86,-17.49l-3.36 3035.59 596.51 6.59 -3.64 -1320.29z"/>
  <polygon class="fil0" points="1197.23,1520.71 1254.96,1453.81 "/>
  <g id="_2281500335824">
   <path class="fil1" d="M4188.21 98.1c0,2.75 -0.34,6.53 -0.86,11.68 -0.52,4.98 -1.2,10.48 -2.23,16.66 -1.03,6.02 -2.41,12.2 -3.95,18.38 -1.55,6.19 -3.44,11.86 -5.67,17.18 -2.24,5.16 -4.81,9.45 -7.56,12.89 -2.75,3.26 -5.67,4.98 -8.76,4.98 -4.64,0 -10.48,-2.06 -17.52,-6.36 -7.05,-4.29 -15.81,-8.76 -25.94,-13.74 -10.31,-4.98 -22.33,-9.45 -36.08,-13.74 -13.74,-4.3 -29.2,-6.36 -46.72,-6.36 -18.04,0 -33.33,2.58 -45.87,7.56 -12.54,4.98 -22.84,11.68 -30.92,19.93 -7.9,8.24 -13.91,17.35 -17.69,27.65 -3.95,10.14 -5.84,20.62 -5.84,30.92 0,12.03 3.09,22.68 9.1,31.95 6.02,9.28 14.09,17.7 24.23,25.6 10.13,7.9 21.64,15.63 34.52,23.02 12.89,7.38 26.11,14.94 39.34,23.02 13.23,8.07 26.46,16.83 39.34,26.45 12.88,9.62 24.39,20.61 34.53,33.15 10.13,12.72 18.21,26.97 24.22,43.29 6.01,16.32 9.1,35.05 9.1,56.17 0,31.44 -6.35,60.81 -19.24,87.78 -12.71,26.97 -30.75,50.34 -54.11,70.43 -23.53,19.93 -51.7,35.56 -84.86,46.9 -33.15,11.51 -69.91,17.18 -110.28,17.18 -21.82,0 -41.74,-1.72 -60.3,-5.33 -18.38,-3.43 -34.69,-7.9 -48.95,-12.88 -14.09,-4.98 -26.11,-10.31 -35.73,-15.98 -9.79,-5.49 -17.01,-10.82 -21.65,-15.8 -4.64,-5.15 -7.04,-12.71 -7.04,-22.85 0,-2.57 0.34,-6.7 1.03,-12.02 0.69,-5.5 1.55,-11.34 2.75,-17.52 1.2,-6.19 2.58,-12.54 4.12,-19.24 1.72,-6.53 3.78,-12.54 6.01,-17.87 2.41,-5.32 4.99,-9.79 7.73,-13.22 2.92,-3.27 5.84,-4.99 9.28,-4.99 5.67,0 12.37,2.58 20.27,7.91 7.9,5.15 17.69,10.82 29.55,17 11.68,6.36 25.59,12.2 41.74,17.52 16.15,5.33 35.39,8.08 57.89,8.08 19.75,0 37.28,-2.58 52.22,-7.56 14.94,-4.98 27.48,-11.85 37.62,-20.44 10.13,-8.76 17.69,-18.73 22.85,-30.24 5.32,-11.51 7.9,-24.05 7.9,-37.79 0,-12.37 -3.09,-23.36 -9.11,-32.64 -6.01,-9.44 -13.91,-18.03 -23.87,-25.94 -9.79,-7.9 -21.13,-15.46 -33.67,-22.5 -12.54,-7.04 -25.43,-14.43 -38.48,-22.5 -13.06,-8.08 -25.94,-16.84 -38.48,-26.28 -12.54,-9.28 -23.88,-20.27 -33.67,-32.81 -9.96,-12.72 -17.86,-27.15 -23.88,-43.64 -6.01,-16.32 -9.1,-35.55 -9.1,-57.37 0,-30.06 6.01,-57.89 18.04,-83.49 12.02,-25.42 28.86,-47.24 50.16,-65.62 21.47,-18.2 47.06,-32.46 76.95,-42.77 29.72,-10.13 62.53,-15.29 98.26,-15.29 16.84,0 32.98,1.21 48.1,3.78 15.12,2.58 29.03,5.67 41.57,9.62 12.37,3.78 23.02,8.08 31.78,12.89 8.76,4.63 14.77,8.58 18.21,11.85 3.43,3.09 5.84,6.53 7.39,9.96 1.54,3.61 2.23,8.07 2.23,13.4zm432.54 584.74c-0.69,3.26 -2.23,6.18 -4.29,8.76 -2.24,2.58 -5.67,4.47 -10.14,6.01 -4.46,1.55 -10.31,2.75 -17.35,3.61 -7.04,0.86 -15.8,1.2 -26.11,1.2 -10.48,0 -18.89,-0.34 -25.59,-1.2 -6.53,-0.86 -11.68,-2.06 -15.29,-3.61 -3.78,-1.54 -6.19,-3.43 -7.39,-6.01 -1.2,-2.58 -1.2,-5.5 -0.17,-8.76l13.57 -73.18c-6.7,11.85 -15.98,23.53 -27.66,35.56 -11.68,11.85 -25.25,22.67 -40.54,32.64 -15.11,9.79 -31.6,17.69 -49.47,23.7 -17.69,6.02 -35.9,9.11 -54.8,9.11 -23.53,0 -43.46,-3.27 -59.78,-9.79 -16.32,-6.53 -29.37,-15.46 -39.33,-26.63 -9.97,-11.34 -17.18,-24.74 -21.65,-40.54 -4.64,-15.8 -6.87,-32.81 -6.87,-51.36 0,-11.34 0.86,-23.02 2.23,-34.87 1.55,-11.86 3.44,-24.05 5.84,-36.42l55.66 -278.63c0.69,-3.26 2.23,-6.18 4.81,-8.76 2.58,-2.58 6.36,-4.47 11.51,-6.01 5.33,-1.55 12.02,-2.75 20.44,-3.61 8.42,-0.86 18.73,-1.2 30.75,-1.2 12.37,0 22.5,0.34 30.41,1.2 7.9,0.86 14.08,2.06 18.38,3.61 4.46,1.54 7.38,3.43 8.76,6.01 1.54,2.58 2.06,5.5 1.37,8.76l-53.77 270.04c-1.71,7.39 -2.92,15.12 -3.78,23.02 -0.85,8.07 -1.2,15.8 -1.2,23.19 0,8.07 0.69,15.29 2.24,21.81 1.54,6.53 3.95,12.2 7.38,16.84 3.27,4.64 7.73,8.24 12.89,10.65 5.32,2.23 11.68,3.44 19.06,3.44 13.75,0 28.17,-4.47 42.95,-13.4 14.94,-8.76 29.2,-21.13 42.6,-36.59 13.4,-15.63 25.42,-34.02 35.9,-55.32 10.48,-21.3 18.55,-44.31 23.88,-69.22l38.13 -194.46c0.35,-3.26 1.89,-6.18 4.47,-8.76 2.75,-2.58 6.7,-4.47 12.02,-6.01 5.16,-1.55 12.03,-2.75 20.45,-3.61 8.41,-0.86 18.55,-1.2 30.75,-1.2 12.36,0 22.5,0.34 30.4,1.2 7.9,0.86 14.09,2.06 18.55,3.61 4.47,1.54 7.39,3.43 8.76,6.01 1.38,2.58 1.72,5.5 1.03,8.76l-90.01 450.41zm622.53 -307.14c0,21.81 -2.06,45.17 -6.01,70.43 -4.13,25.08 -10.31,49.98 -18.73,74.89 -8.24,24.74 -19.06,48.79 -32.12,71.63 -13.05,23.02 -28.69,43.29 -47.07,60.64 -18.21,17.52 -39.16,31.44 -62.87,41.75 -23.7,10.47 -50.16,15.63 -79.7,15.63 -13.4,0 -25.94,-1.38 -37.45,-3.95 -11.68,-2.75 -22.51,-6.53 -32.3,-11.34 -9.79,-4.81 -18.72,-10.48 -26.79,-17.01 -7.91,-6.52 -14.95,-13.57 -20.96,-20.78l-40.37 202.53c-0.69,3.43 -2.41,6.35 -4.81,9.1 -2.58,2.58 -6.36,4.98 -11.68,6.7 -5.15,1.89 -12.03,3.26 -20.44,4.29 -8.42,1.04 -18.73,1.55 -31.27,1.55 -12.36,0 -22.33,-0.51 -30.06,-1.55 -7.73,-1.03 -13.91,-2.4 -18.38,-4.29 -4.47,-1.72 -7.39,-4.12 -8.76,-6.7 -1.37,-2.75 -1.72,-5.67 -1.03,-9.1l125.74 -627.69c1.38,-7.04 6.53,-12.02 15.63,-15.11 9.11,-2.92 24.05,-4.47 44.84,-4.47 10.31,0 18.72,0.34 25.42,1.2 6.53,0.86 11.68,2.06 15.46,3.61 3.95,1.54 6.53,3.43 7.9,6.01 1.38,2.58 1.72,5.5 1.04,8.76l-14.09 73.35c4.98,-11.16 12.88,-22.67 23.88,-34.53 10.82,-11.85 23.87,-22.84 39.16,-32.63 15.29,-9.97 32.13,-18.04 50.33,-24.4 18.21,-6.35 37.11,-9.62 56.52,-9.62 25.94,0 47.58,4.47 65.28,13.4 17.52,8.76 31.78,20.96 42.77,36.42 10.82,15.46 18.72,33.5 23.71,54.28 4.81,20.79 7.21,43.12 7.21,67zm-129.87 10.99c0,-11.34 -0.85,-21.82 -2.74,-31.09 -1.89,-9.45 -4.99,-17.35 -9.11,-23.88 -4.29,-6.53 -9.79,-11.51 -16.32,-14.94 -6.53,-3.27 -14.6,-4.99 -24.05,-4.99 -15.11,0 -30.4,4.47 -45.52,13.4 -15.29,8.76 -29.72,20.96 -43.12,36.08 -13.39,15.29 -25.25,33.15 -35.73,53.42 -10.3,20.27 -17.69,41.91 -21.98,65.11l-13.75 68.54c11.69,18.38 24.57,32.12 38.83,41.39 14.08,9.11 30.57,13.75 49.3,13.75 13.74,0 26.45,-3.44 38.13,-10.14 11.51,-6.7 21.99,-15.63 31.27,-26.8 9.27,-11.33 17.35,-24.22 24.22,-38.99 6.87,-14.77 12.71,-30.23 17.18,-46.21 4.63,-16.15 7.9,-32.29 10.13,-48.61 2.23,-16.32 3.26,-31.61 3.26,-46.04zm646.07 -54.63c0,24.05 -5.5,45.87 -16.32,65.11 -10.82,19.41 -27.83,35.9 -50.67,49.82 -23.02,13.91 -52.05,24.56 -87.44,31.95 -35.21,7.38 -77.3,11.16 -126.26,11.16l-46.21 0c-1.2,7.73 -2.23,15.29 -2.92,22.85 -0.68,7.56 -1.03,14.6 -1.03,20.96 0,27.14 7.05,47.58 20.96,61.32 14.09,13.74 36.59,20.61 67.68,20.61 22.16,0 41.92,-1.54 59.61,-4.8 17.52,-3.27 32.98,-6.7 46.21,-10.66 13.4,-3.95 24.22,-7.38 32.98,-10.65 8.76,-3.26 15.12,-4.81 19.24,-4.81 3.95,0 6.87,1.21 8.42,3.44 1.71,2.41 2.57,6.18 2.57,11.17 0,5.66 -0.51,12.19 -1.54,19.58 -1.03,7.39 -2.41,14.77 -4.3,21.81 -1.71,7.22 -4.12,14.09 -7.04,20.45 -2.75,6.35 -6.01,11.16 -9.79,14.6 -3.95,3.95 -11.34,8.07 -22.16,12.02 -10.65,4.13 -23.54,7.73 -38.65,11.17 -15.12,3.26 -32.12,6.01 -50.85,8.24 -18.89,2.24 -37.96,3.27 -57.37,3.27 -32.3,0 -60.3,-3.44 -84.35,-10.14 -23.87,-6.7 -43.97,-16.83 -60.12,-30.57 -16.15,-13.75 -28.17,-31.27 -36.25,-52.57 -8.07,-21.3 -12.02,-46.55 -12.02,-75.75 0,-22.51 2.06,-46.56 6.36,-72.15 4.12,-25.77 10.99,-51.02 20.27,-75.93 9.44,-25.08 21.47,-48.96 36.24,-71.8 14.77,-22.68 32.64,-42.78 53.6,-60.13 21.13,-17.17 45.35,-31.09 72.83,-41.39 27.49,-10.48 58.92,-15.64 94.14,-15.64 30.4,0 56.68,3.61 78.5,10.83 21.99,7.21 40.02,16.83 53.94,28.68 14.09,11.86 24.56,25.6 31.43,40.89 6.88,15.11 10.31,30.92 10.31,47.06zm-124.71 9.11c0,-13.4 -5.15,-24.57 -15.63,-33.5 -10.48,-8.93 -25.6,-13.4 -45.35,-13.4 -16.84,0 -31.78,3.09 -45.01,9.11 -13.23,6.01 -24.91,14.08 -34.87,24.39 -9.96,10.31 -18.72,22.33 -25.94,36.25 -7.04,14.08 -12.88,28.85 -17.18,44.66l41.92 0c26.62,0 49.13,-1.72 66.99,-5.33 18.04,-3.43 32.64,-8.24 43.63,-14.25 11,-6.19 18.9,-13.23 23.88,-21.48 4.98,-8.24 7.56,-17 7.56,-26.45zm536.13 -114.92c0,2.23 -0.34,6.53 -1.03,12.54 -0.69,6.01 -1.72,13.05 -2.92,21.13 -1.38,7.9 -3.09,16.32 -5.16,24.73 -2.06,8.59 -4.29,16.49 -6.69,23.88 -2.58,7.39 -5.5,13.4 -8.59,18.21 -3.27,4.64 -6.7,6.87 -10.31,6.87 -3.09,0 -6.18,-0.51 -9.1,-1.72 -3.1,-1.2 -6.36,-2.23 -10.14,-3.43 -3.61,-1.21 -7.73,-2.41 -12.02,-3.61 -4.47,-1.2 -9.45,-1.72 -15.12,-1.72 -11.34,0 -23.53,4.3 -36.42,13.06 -12.88,8.76 -25.08,20.27 -36.76,34.52 -11.68,14.26 -22.16,30.93 -31.26,49.82 -9.28,19.07 -15.81,39 -19.93,59.78l-40.37 202.01c-0.69,3.27 -2.23,6.19 -4.81,8.76 -2.4,2.58 -6.35,4.64 -11.68,6.36 -5.15,1.55 -12.02,2.92 -20.44,3.78 -8.42,0.86 -18.72,1.2 -30.92,1.2 -12.37,0 -22.33,-0.34 -30.23,-1.2 -7.73,-0.86 -13.92,-2.23 -18.38,-3.78 -4.47,-1.72 -7.39,-3.78 -8.77,-6.36 -1.37,-2.57 -1.71,-5.49 -1.03,-8.76l89.67 -449.89c0.69,-3.26 2.24,-6.18 4.47,-8.76 2.4,-2.58 5.84,-4.47 10.31,-6.01 4.46,-1.55 10.3,-2.75 17.35,-3.61 7.21,-0.86 15.8,-1.2 25.76,-1.2 10.48,0 18.9,0.34 25.43,1.2 6.52,0.86 11.68,2.06 15.28,3.61 3.78,1.54 6.19,3.43 7.39,6.01 1.2,2.58 1.38,5.5 0.69,8.76l-13.57 71.63c8.07,-14.43 17.35,-27.65 27.83,-39.68 10.47,-12.02 21.81,-22.5 33.66,-31.43 11.86,-8.94 24.05,-15.81 36.77,-20.79 12.71,-4.98 25.25,-7.56 37.62,-7.56 4.98,0 10.13,0.35 15.28,1.03 5.33,0.69 10.14,1.55 14.61,2.41 4.63,1.03 8.58,2.4 12.19,3.78 3.44,1.54 6.36,3.09 8.25,4.81 2.06,2.06 3.09,5.15 3.09,9.62zm695.19 456.07c-0.68,3.27 -2.23,6.19 -4.81,8.76 -2.57,2.58 -6.52,4.64 -12.02,6.36 -5.33,1.55 -12.37,2.92 -20.61,3.78 -8.42,0.86 -18.9,1.2 -31.44,1.2 -11.85,0 -21.82,-0.34 -29.72,-1.2 -7.9,-0.86 -13.91,-2.23 -18.21,-3.78 -4.29,-1.72 -7.21,-3.78 -8.76,-6.36 -1.37,-2.57 -1.72,-5.49 -0.68,-8.76l52.56 -269.52c1.37,-7.73 2.58,-15.46 3.44,-23.02 1.03,-7.56 1.54,-15.11 1.54,-22.84 0,-15.98 -2.92,-28.69 -8.76,-38.48 -5.67,-9.79 -16.15,-14.6 -31.09,-14.6 -13.4,0 -27.14,4.29 -41.57,13.05 -14.43,8.76 -28.17,20.61 -41.4,35.56 -13.23,14.94 -24.91,32.47 -35.22,52.56 -10.13,19.93 -17.35,41.23 -21.81,63.73l-41.06 203.56c-0.68,3.27 -2.23,6.19 -4.81,8.76 -2.4,2.58 -6.35,4.64 -11.85,6.36 -5.33,1.55 -12.2,2.92 -20.44,3.78 -8.25,0.86 -18.55,1.2 -30.92,1.2 -12.03,0 -21.99,-0.34 -29.89,-1.2 -7.9,-0.86 -13.92,-2.23 -18.38,-3.78 -4.3,-1.72 -7.22,-3.78 -8.76,-6.36 -1.55,-2.57 -1.89,-5.49 -1.21,-8.76l53.6 -269.52c2.06,-7.73 3.43,-15.8 4.29,-24.05 0.86,-8.24 1.21,-16.15 1.21,-23.88 0,-14.77 -2.92,-26.97 -9.11,-36.58 -6.01,-9.62 -16.49,-14.43 -31.43,-14.43 -13.4,0 -27.32,4.29 -41.75,13.05 -14.43,8.76 -28.34,20.61 -41.57,35.56 -13.22,14.94 -25.08,32.47 -35.21,52.56 -10.31,19.93 -17.52,41.23 -21.99,63.73l-40.37 203.56c-0.69,3.27 -2.23,6.19 -4.81,8.76 -2.4,2.58 -6.35,4.64 -11.68,6.36 -5.15,1.55 -12.02,2.92 -20.44,3.78 -8.42,0.86 -18.72,1.2 -30.92,1.2 -12.37,0 -22.33,-0.34 -30.23,-1.2 -7.73,-0.86 -13.92,-2.23 -18.38,-3.78 -4.47,-1.72 -7.39,-3.78 -8.77,-6.36 -1.37,-2.57 -1.71,-5.49 -1.03,-8.76l89.67 -449.89c0.69,-3.26 2.06,-6.18 4.3,-8.76 2.23,-2.58 5.49,-4.47 10.13,-6.01 4.47,-1.55 10.31,-2.75 17.52,-3.61 7.22,-0.86 15.81,-1.2 25.94,-1.2 10.48,0 18.9,0.34 25.43,1.2 6.52,0.86 11.68,2.06 15.46,3.61 3.6,1.54 6.01,3.43 7.21,6.01 1.2,2.58 1.38,5.5 0.69,8.76l-14.43 74.04c7.04,-11.68 16.32,-23.71 28.17,-35.9 11.68,-12.2 24.91,-23.19 39.85,-32.81 14.95,-9.79 31.27,-17.7 48.79,-23.88 17.69,-6.18 35.73,-9.28 54.63,-9.28 19.41,0 36.41,2.58 50.67,7.73 14.26,5.16 25.94,12.37 35.22,21.65 9.27,9.27 16.31,19.92 21.3,32.29 4.81,12.54 7.9,25.94 9.27,40.2 7.73,-12.03 17.52,-24.05 29.38,-36.07 11.85,-12.03 25.25,-23.02 40.19,-32.64 14.95,-9.79 31.09,-17.7 48.44,-23.88 17.53,-6.18 35.39,-9.28 53.77,-9.28 23.54,0 43.12,3.27 59.09,9.8 15.81,6.52 28.69,15.63 38.31,27.14 9.79,11.51 16.84,25.08 21.13,40.71 4.29,15.63 6.53,32.46 6.53,50.67 0,11.68 -0.69,23.54 -2.06,35.39 -1.21,11.85 -3.27,24.05 -6.02,36.42l-54.11 277.59zm590.75 -350.26c0,24.05 -5.5,45.87 -16.32,65.11 -10.82,19.41 -27.83,35.9 -50.67,49.82 -23.02,13.91 -52.05,24.56 -87.44,31.95 -35.21,7.38 -77.3,11.16 -126.26,11.16l-46.21 0c-1.2,7.73 -2.23,15.29 -2.92,22.85 -0.68,7.56 -1.03,14.6 -1.03,20.96 0,27.14 7.05,47.58 20.96,61.32 14.09,13.74 36.59,20.61 67.68,20.61 22.16,0 41.92,-1.54 59.61,-4.8 17.52,-3.27 32.98,-6.7 46.21,-10.66 13.4,-3.95 24.22,-7.38 32.98,-10.65 8.76,-3.26 15.12,-4.81 19.24,-4.81 3.95,0 6.87,1.21 8.42,3.44 1.71,2.41 2.57,6.18 2.57,11.17 0,5.66 -0.51,12.19 -1.54,19.58 -1.03,7.39 -2.41,14.77 -4.3,21.81 -1.71,7.22 -4.12,14.09 -7.04,20.45 -2.75,6.35 -6.01,11.16 -9.79,14.6 -3.95,3.95 -11.34,8.07 -22.16,12.02 -10.65,4.13 -23.54,7.73 -38.65,11.17 -15.12,3.26 -32.12,6.01 -50.85,8.24 -18.89,2.24 -37.96,3.27 -57.37,3.27 -32.3,0 -60.3,-3.44 -84.35,-10.14 -23.87,-6.7 -43.97,-16.83 -60.12,-30.57 -16.15,-13.75 -28.17,-31.27 -36.25,-52.57 -8.07,-21.3 -12.02,-46.55 -12.02,-75.75 0,-22.51 2.06,-46.56 6.36,-72.15 4.12,-25.77 10.99,-51.02 20.27,-75.93 9.44,-25.08 21.47,-48.96 36.24,-71.8 14.77,-22.68 32.64,-42.78 53.6,-60.13 21.13,-17.17 45.35,-31.09 72.83,-41.39 27.49,-10.48 58.92,-15.64 94.14,-15.64 30.4,0 56.68,3.61 78.5,10.83 21.99,7.21 40.02,16.83 53.94,28.68 14.09,11.86 24.56,25.6 31.43,40.89 6.88,15.11 10.31,30.92 10.31,47.06zm-124.71 9.11c0,-13.4 -5.15,-24.57 -15.63,-33.5 -10.48,-8.93 -25.6,-13.4 -45.35,-13.4 -16.84,0 -31.78,3.09 -45.01,9.11 -13.23,6.01 -24.91,14.08 -34.87,24.39 -9.96,10.31 -18.72,22.33 -25.94,36.25 -7.04,14.08 -12.88,28.85 -17.18,44.66l41.92 0c26.62,0 49.13,-1.72 66.99,-5.33 18.04,-3.43 32.64,-8.24 43.63,-14.25 11,-6.19 18.9,-13.23 23.88,-21.48 4.98,-8.24 7.56,-17 7.56,-26.45zm536.13 -114.92c0,2.23 -0.34,6.53 -1.03,12.54 -0.69,6.01 -1.72,13.05 -2.92,21.13 -1.38,7.9 -3.09,16.32 -5.16,24.73 -2.06,8.59 -4.29,16.49 -6.69,23.88 -2.58,7.39 -5.5,13.4 -8.59,18.21 -3.27,4.64 -6.7,6.87 -10.31,6.87 -3.09,0 -6.18,-0.51 -9.1,-1.72 -3.1,-1.2 -6.36,-2.23 -10.14,-3.43 -3.61,-1.21 -7.73,-2.41 -12.02,-3.61 -4.47,-1.2 -9.45,-1.72 -15.12,-1.72 -11.34,0 -23.53,4.3 -36.42,13.06 -12.88,8.76 -25.08,20.27 -36.76,34.52 -11.68,14.26 -22.16,30.93 -31.26,49.82 -9.28,19.07 -15.81,39 -19.93,59.78l-40.37 202.01c-0.69,3.27 -2.23,6.19 -4.81,8.76 -2.4,2.58 -6.35,4.64 -11.68,6.36 -5.15,1.55 -12.02,2.92 -20.44,3.78 -8.42,0.86 -18.72,1.2 -30.92,1.2 -12.37,0 -22.33,-0.34 -30.23,-1.2 -7.73,-0.86 -13.92,-2.23 -18.38,-3.78 -4.47,-1.72 -7.39,-3.78 -8.77,-6.36 -1.37,-2.57 -1.71,-5.49 -1.03,-8.76l89.67 -449.89c0.69,-3.26 2.24,-6.18 4.47,-8.76 2.4,-2.58 5.84,-4.47 10.31,-6.01 4.46,-1.55 10.3,-2.75 17.35,-3.61 7.21,-0.86 15.8,-1.2 25.76,-1.2 10.48,0 18.9,0.34 25.43,1.2 6.52,0.86 11.68,2.06 15.28,3.61 3.78,1.54 6.19,3.43 7.39,6.01 1.2,2.58 1.38,5.5 0.69,8.76l-13.57 71.63c8.07,-14.43 17.35,-27.65 27.83,-39.68 10.47,-12.02 21.81,-22.5 33.66,-31.43 11.86,-8.94 24.05,-15.81 36.77,-20.79 12.71,-4.98 25.25,-7.56 37.62,-7.56 4.98,0 10.13,0.35 15.28,1.03 5.33,0.69 10.14,1.55 14.61,2.41 4.63,1.03 8.58,2.4 12.19,3.78 3.44,1.54 6.36,3.09 8.25,4.81 2.06,2.06 3.09,5.15 3.09,9.62zm401.96 37.27c0,7.73 -0.85,16.32 -2.74,26.11 -1.89,9.62 -4.3,18.9 -7.39,27.66 -2.92,8.59 -6.7,15.98 -11.34,21.82 -4.46,5.84 -9.45,8.76 -14.94,8.76 -4.98,0 -9.79,-2.06 -14.43,-6.19 -4.81,-3.95 -10.48,-8.58 -17.35,-13.74 -6.87,-4.98 -15.63,-9.62 -25.94,-13.91 -10.48,-4.3 -23.88,-6.36 -40.2,-6.36 -17.52,0 -32.98,3.78 -46.72,11.51 -13.74,7.73 -25.77,17.87 -36.07,30.06 -10.14,12.2 -18.56,26.28 -25.26,41.92 -6.7,15.63 -12.19,31.26 -16.66,47.24 -4.29,15.97 -7.39,31.26 -9.28,45.86 -1.89,14.6 -2.74,27.31 -2.74,38.14 0,27.14 6.01,47.92 17.86,62.01 11.85,14.09 30.41,21.13 55.83,21.13 18.72,0 34.87,-2.41 48.27,-7.39 13.4,-4.81 24.91,-10.13 34.53,-15.97 9.45,-6.02 17.69,-11.17 24.56,-15.98 6.87,-4.64 13.23,-7.04 18.9,-7.04 3.26,0 5.67,1.54 7.04,4.46 1.55,3.1 2.23,7.56 2.23,13.23 0,5.67 -0.68,12.88 -2.06,21.47 -1.2,8.59 -2.92,17.18 -5.15,25.94 -2.06,8.76 -4.64,17.01 -7.39,24.57 -2.92,7.55 -6.52,13.57 -10.99,17.86 -4.64,4.3 -11.68,9.28 -21.47,14.77 -9.62,5.5 -20.96,10.31 -33.67,14.78 -12.71,4.29 -26.63,7.73 -41.57,10.48 -14.78,2.57 -30.41,3.95 -46.38,3.95 -57.38,0 -100.32,-14.6 -128.67,-43.63 -28.51,-29.04 -42.77,-71.98 -42.77,-128.84 0,-20.44 1.89,-42.94 5.84,-67.51 3.78,-24.56 10.14,-49.13 18.9,-73.86 8.59,-24.57 19.92,-48.62 33.84,-71.81 13.91,-23.19 30.92,-43.63 51.02,-61.5 20.27,-17.69 43.46,-32.12 70.08,-42.77 26.46,-10.82 56.86,-16.15 91.56,-16.15 13.4,0 26.45,1.03 39.17,3.1 12.71,2.06 24.39,4.81 35.04,8.41 10.82,3.61 20.27,7.9 28.51,12.71 8.25,4.81 14.26,9.11 18.39,13.06 3.95,3.95 6.52,7.56 7.73,10.48 1.2,3.09 1.88,6.7 1.88,11.16zm421.38 419.32c-1.38,7.04 -6.7,12.02 -15.98,15.12 -9.1,2.92 -24.05,4.46 -44.66,4.46 -10.31,0 -18.72,-0.34 -25.25,-1.03 -6.53,-0.69 -11.85,-1.72 -15.81,-3.26 -4.12,-1.55 -6.69,-3.44 -7.9,-6.01 -1.03,-2.58 -1.37,-5.67 -0.68,-9.28l14.08 -72.15c-5.15,10.82 -13.23,22.16 -24.22,34.01 -10.99,11.86 -24.22,22.68 -39.17,32.3 -15.11,9.79 -31.77,17.69 -50.16,24.05 -18.2,6.35 -37.1,9.62 -56.68,9.62 -26.8,0 -49.13,-4.64 -67,-14.09 -17.86,-9.45 -32.12,-21.99 -42.94,-37.96 -10.65,-15.98 -18.38,-34.19 -22.85,-54.63 -4.64,-20.44 -6.87,-41.91 -6.87,-64.42 0,-21.12 2.06,-44.14 6.01,-69.05 4.13,-25.08 10.31,-49.99 18.73,-74.73 8.41,-24.9 19.06,-48.78 32.12,-71.8 13.23,-22.85 28.86,-43.29 47.24,-60.98 18.21,-17.87 39.16,-31.95 62.87,-42.6 23.71,-10.48 50.5,-15.81 80.39,-15.81 27.83,0 52.4,5.84 73.87,17.35 21.47,11.51 40.2,28.35 56.17,50.33l8.07 -39.85c1.38,-7.04 6.7,-12.02 15.98,-15.11 9.28,-2.92 24.22,-4.47 44.83,-4.47 9.97,0 18.39,0.34 24.91,1.2 6.7,0.86 12.03,2.06 15.81,3.61 3.78,1.54 6.35,3.43 7.73,6.01 1.37,2.58 1.71,5.5 1.03,8.76l-89.67 450.41zm-62.87 -315.39c-11.68,-18.21 -24.57,-31.78 -38.83,-40.88 -14.25,-9.11 -30.74,-13.75 -49.47,-13.75 -14.26,0 -27.31,3.27 -38.99,9.97 -11.85,6.7 -22.33,15.8 -31.44,26.97 -9.1,11.16 -17.18,24.22 -24.05,38.82 -6.87,14.77 -12.54,30.06 -17.18,46.04 -4.46,15.8 -7.9,31.95 -10.13,48.1 -2.23,16.31 -3.26,31.26 -3.26,45 0,9.97 0.68,19.58 2.23,28.52 1.55,9.1 4.47,17.18 8.42,24.22 4.12,7.04 9.62,12.54 16.49,16.66 6.7,4.3 15.46,6.36 25.94,6.36 14.77,0 29.89,-4.47 45.35,-13.4 15.46,-8.76 29.89,-20.96 43.46,-36.08 13.4,-15.28 25.25,-33.15 35.38,-53.42 10.31,-20.27 17.87,-41.91 22.51,-65.1l13.57 -68.03z"/>
   <path class="fil1" d="M9236.49 682.5c-1.38,7.21 -6.7,12.19 -15.98,15.28 -9.45,3.1 -24.39,4.64 -45,4.64 -10.31,0 -18.73,-0.34 -25.26,-1.03 -6.7,-0.69 -11.85,-1.72 -15.97,-3.26 -3.95,-1.55 -6.53,-3.61 -7.73,-6.19 -1.2,-2.57 -1.38,-5.67 -0.69,-9.44l12.88 -71.98c-4.98,10.82 -13.05,22.16 -24.04,34.01 -11,11.85 -24.05,22.85 -39.17,32.64 -14.95,9.96 -31.61,18.04 -49.82,24.22 -18.21,6.19 -37.1,9.28 -56.51,9.28 -19.07,0 -35.9,-2.41 -50.16,-7.22 -14.26,-4.98 -26.46,-11.51 -36.76,-19.92 -10.31,-8.42 -18.73,-18.38 -25.43,-29.72 -6.87,-11.34 -12.19,-23.54 -16.14,-36.25 -4.13,-12.71 -7.05,-25.94 -8.59,-39.51 -1.72,-13.57 -2.58,-26.79 -2.58,-39.85 0,-21.82 2.06,-45.35 6.01,-70.26 4.13,-24.91 10.31,-49.81 18.9,-74.38 8.59,-24.73 19.41,-48.44 32.46,-71.29 13.23,-22.84 28.86,-42.94 47.24,-60.29 18.21,-17.52 39.17,-31.44 62.88,-41.74 23.7,-10.48 50.33,-15.64 79.87,-15.64 13.06,0 25.6,1.38 37.45,4.3 12.03,2.75 22.85,6.7 32.81,11.51 9.79,4.98 18.9,10.65 26.97,17.35 7.9,6.7 14.95,13.74 20.61,21.13l47.07 -236.72c0.69,-3.43 2.24,-6.35 4.64,-9.1 2.23,-2.58 6.18,-4.98 11.34,-6.7 5.32,-1.89 12.02,-3.26 20.44,-4.3 8.25,-1.03 18.55,-1.54 31.09,-1.54 12.37,0 22.33,0.51 30.24,1.54 7.73,1.04 13.74,2.41 18.03,4.3 4.3,1.72 7.22,4.12 8.42,6.7 1.37,2.75 1.72,5.67 1.03,9.1l-130.55 660.33zm-63.56 -314.36c-11.68,-18.38 -24.74,-32.12 -39,-41.4 -14.25,-9.28 -30.74,-13.92 -49.47,-13.92 -13.91,0 -26.62,3.27 -38.31,9.8 -11.68,6.52 -21.98,15.28 -31.26,26.11 -9.28,10.82 -17.52,23.53 -24.39,38.13 -6.87,14.6 -12.54,29.89 -17.18,45.87 -4.47,16.14 -8.07,32.12 -10.31,48.27 -2.4,15.97 -3.6,31.26 -3.6,45.69 0,25.42 4.29,44.49 12.71,57.38 8.59,12.88 21.99,19.41 40.37,19.41 14.94,0 30.06,-4.47 45.52,-13.4 15.46,-8.76 29.89,-20.79 43.29,-35.56 13.57,-14.95 25.42,-32.64 35.55,-52.91 10.31,-20.27 17.87,-41.91 22.51,-65.1l13.57 -68.37zm685.06 15.97c0,24.22 -2.23,48.96 -6.87,74.56 -4.47,25.42 -11.51,50.33 -21.3,74.72 -9.79,24.22 -22.16,47.07 -37.45,68.37 -15.29,21.3 -33.67,40.02 -54.97,56.34 -21.3,16.32 -45.69,29.03 -73.18,38.48 -27.48,9.45 -58.4,14.09 -93.1,14.09 -33.84,0 -63.22,-3.95 -87.95,-11.86 -24.74,-7.9 -45.18,-19.41 -61.67,-34.69 -16.49,-15.29 -28.86,-34.02 -36.94,-56.35 -8.07,-22.33 -12.02,-47.93 -12.02,-76.61 0,-24.22 2.23,-48.96 6.87,-74.56 4.47,-25.42 11.68,-50.33 21.3,-74.38 9.79,-24.22 22.33,-47.06 37.62,-68.71 15.29,-21.64 33.5,-40.54 54.8,-56.51 21.47,-16.15 45.86,-28.86 73.35,-38.31 27.66,-9.45 58.58,-14.09 93.28,-14.09 33.84,0 63.04,3.95 87.78,11.86 24.73,7.9 45.17,19.41 61.66,34.7 16.5,15.28 28.69,34.01 36.77,56.34 8.07,22.33 12.02,47.93 12.02,76.61zm-130.9 8.94c0,-14.09 -1.37,-26.63 -4.29,-37.45 -2.75,-10.82 -7.56,-20.1 -14.09,-27.66 -6.52,-7.56 -14.94,-13.23 -25.08,-17.35 -10.3,-3.95 -22.84,-6.01 -37.62,-6.01 -16.83,0 -31.95,3.26 -45.35,9.79 -13.4,6.53 -25.42,15.29 -36.07,26.46 -10.48,10.99 -19.58,23.87 -27.31,38.47 -7.73,14.43 -14.26,29.89 -19.24,45.87 -4.98,16.15 -8.76,32.47 -11,49.13 -2.4,16.49 -3.6,32.29 -3.6,47.41 0,14.09 1.37,26.63 4.29,37.62 2.92,11.16 7.56,20.44 14.09,28 6.7,7.56 15.11,13.23 25.25,17.35 10.31,3.95 22.84,6.01 37.62,6.01 16.83,0 31.95,-3.26 45.35,-9.79 13.4,-6.53 25.42,-15.46 35.9,-26.63 10.65,-11.16 19.75,-24.22 27.48,-38.65 7.73,-14.6 14.09,-30.06 19.07,-46.38 4.98,-16.14 8.76,-32.46 11.17,-48.95 2.23,-16.5 3.43,-32.13 3.43,-47.24zm548.67 -140.35c0,3.95 -0.52,9.97 -1.72,17.87 -1.2,7.9 -2.92,15.8 -5.15,23.87 -2.41,8.08 -4.99,14.95 -8.25,20.96 -3.09,5.84 -6.7,8.76 -10.65,8.76 -4.29,0 -9.45,-1.54 -15.29,-4.81 -5.84,-3.09 -13.05,-6.53 -21.47,-10.3 -8.25,-3.96 -18.21,-7.22 -29.38,-10.31 -11.33,-2.92 -24.39,-4.47 -39.5,-4.47 -11.69,0 -22.16,1.55 -31.27,4.47 -9.27,3.09 -16.83,7.21 -22.85,12.37 -6.01,5.15 -10.65,11.33 -13.74,18.38 -3.26,6.87 -4.81,14.43 -4.81,22.5 0,10.31 4.3,19.07 12.71,26.11 8.59,7.04 19.24,13.74 31.96,19.93 12.71,6.18 26.45,12.71 41.05,19.41 14.77,6.7 28.52,15.12 41.23,25.08 12.71,10.13 23.19,22.33 31.61,36.76 8.41,14.43 12.54,32.47 12.54,54.28 0,25.6 -4.81,49.13 -14.61,70.78 -9.62,21.64 -23.87,40.19 -42.43,56 -18.55,15.8 -41.22,28.17 -67.85,36.93 -26.62,8.93 -56.69,13.4 -90.18,13.4 -16.15,0 -31.61,-1.2 -46.21,-3.44 -14.6,-2.4 -27.66,-5.15 -39.34,-8.42 -11.51,-3.26 -21.3,-7.04 -29.37,-11.33 -8.08,-4.3 -14.09,-8.25 -18.21,-11.86 -2.58,-2.74 -4.47,-5.49 -5.67,-8.58 -1.2,-3.1 -1.72,-6.88 -1.72,-11.51 0,-3.1 0.17,-7.05 0.69,-11.68 0.51,-4.64 1.37,-9.97 2.57,-15.64 1.21,-5.67 2.58,-11.51 3.96,-17.17 1.54,-5.67 3.26,-11 5.32,-15.64 2.06,-4.63 4.12,-8.41 6.53,-11.33 2.4,-2.92 4.81,-4.3 7.56,-4.3 4.63,0 9.96,2.06 15.63,6.01 5.67,3.95 13.05,8.42 22.16,13.4 8.93,4.81 20.1,9.28 33.32,13.4 13.4,4.3 29.89,6.36 49.65,6.36 13.74,0 25.59,-1.55 35.73,-4.81 10.13,-3.27 18.55,-7.73 25.25,-13.4 6.53,-5.67 11.51,-12.37 14.6,-19.76 3.26,-7.38 4.81,-15.28 4.81,-23.7 0,-11.68 -4.12,-21.3 -12.37,-28.69 -8.07,-7.39 -18.38,-14.26 -30.75,-20.61 -12.36,-6.36 -25.76,-12.89 -40.36,-19.59 -14.61,-6.7 -28,-14.94 -40.37,-24.73 -12.37,-9.62 -22.68,-21.82 -30.75,-36.25 -8.25,-14.43 -12.37,-32.46 -12.37,-54.28 0,-23.88 4.47,-45.87 13.57,-66.31 9.11,-20.61 22.33,-38.48 39.85,-53.59 17.35,-15.29 38.48,-27.32 63.39,-35.73 24.91,-8.59 53.08,-12.89 84.52,-12.89 14.08,0 27.83,0.86 41.05,2.75 13.23,1.89 25.25,4.3 35.73,7.22 10.65,2.92 19.93,6.35 27.66,9.96 7.9,3.61 13.57,7.39 17.01,10.99 3.26,3.44 4.98,9.11 4.98,17.18z"/>
  </g>
  <path class="fil1" d="M4384.53 5488.4c0,9.27 -1.55,21.98 -4.81,37.79 -3.09,15.8 -7.21,28.51 -12.02,37.96 -4.81,9.62 -10.31,14.43 -16.32,14.43 -4.47,0 -9.62,-2.75 -15.64,-8.42 -6.01,-5.49 -13.91,-11.5 -23.7,-17.86 -9.62,-6.36 -22.16,-12.37 -37.11,-17.87 -15.11,-5.66 -34.01,-8.41 -56.34,-8.41 -24.91,0 -47.58,4.98 -68.02,14.77 -20.45,9.96 -38.83,23.02 -54.8,39.34 -16.15,16.14 -30.24,34.87 -42.26,56 -12.2,21.13 -22.16,42.94 -30.06,65.79 -7.9,22.85 -13.74,45.52 -17.52,68.2 -3.95,22.5 -5.84,43.63 -5.84,63.04 0,23.36 2.92,43.98 8.76,61.84 6.01,17.69 14.43,32.47 25.42,44.15 11.17,11.68 24.74,20.61 40.88,26.45 16.15,5.84 34.19,8.76 54.46,8.76 23.7,0 44.15,-2.57 61.15,-7.56 16.84,-4.98 31.27,-10.65 43.29,-16.66 11.85,-6.01 21.82,-11.68 29.55,-16.66 7.9,-4.98 15.11,-7.56 21.47,-7.56 4.29,0 7.21,1.55 8.59,4.81 1.54,3.09 2.23,7.56 2.23,13.4 0,2.23 -0.34,5.84 -1.03,10.48 -0.69,4.81 -1.55,9.96 -2.4,15.97 -1.03,5.84 -2.24,12.2 -3.61,19.07 -1.38,6.87 -2.92,13.23 -4.47,19.24 -1.72,5.84 -3.6,11.17 -5.84,16.15 -2.23,4.81 -5.15,9.1 -8.76,12.71 -3.78,3.78 -10.99,8.59 -21.64,14.43 -10.65,5.84 -23.88,11.34 -39.17,16.32 -15.46,5.15 -32.98,9.45 -52.39,12.88 -19.41,3.61 -40.2,5.33 -62.36,5.33 -36.42,0 -69.4,-4.81 -98.77,-14.6 -29.38,-9.8 -54.28,-24.4 -74.73,-44.32 -20.44,-19.76 -36.24,-44.49 -47.24,-74.38 -11.16,-29.89 -16.66,-64.77 -16.66,-104.62 0,-31.26 3.27,-63.56 9.62,-97.4 6.36,-33.67 15.98,-66.65 28.86,-98.77 12.88,-32.12 29.2,-62.7 49.13,-91.56 19.75,-28.86 43.12,-54.11 70.09,-75.75 26.97,-21.48 57.71,-38.83 92.07,-51.54 34.36,-12.71 72.49,-19.07 114.41,-19.07 23.53,0 45.69,2.41 66.65,7.39 20.95,4.81 39.33,11.34 54.79,19.41 15.64,8.07 26.63,15.29 32.81,21.82 6.19,6.52 9.28,14.94 9.28,25.08zm445.77 220.73c0,24.05 -5.5,45.87 -16.32,65.11 -10.82,19.41 -27.83,35.9 -50.67,49.82 -23.02,13.91 -52.05,24.56 -87.44,31.95 -35.21,7.38 -77.3,11.16 -126.26,11.16l-46.21 0c-1.2,7.73 -2.23,15.29 -2.92,22.85 -0.68,7.56 -1.03,14.6 -1.03,20.96 0,27.14 7.05,47.58 20.96,61.32 14.09,13.74 36.59,20.61 67.68,20.61 22.16,0 41.92,-1.54 59.61,-4.8 17.52,-3.27 32.98,-6.7 46.21,-10.66 13.4,-3.95 24.22,-7.38 32.98,-10.65 8.76,-3.26 15.12,-4.81 19.24,-4.81 3.95,0 6.87,1.21 8.42,3.44 1.71,2.41 2.57,6.18 2.57,11.17 0,5.66 -0.51,12.19 -1.54,19.58 -1.03,7.39 -2.41,14.77 -4.3,21.81 -1.71,7.22 -4.12,14.09 -7.04,20.45 -2.75,6.35 -6.01,11.16 -9.79,14.6 -3.95,3.95 -11.34,8.07 -22.16,12.02 -10.65,4.13 -23.54,7.73 -38.65,11.17 -15.12,3.26 -32.12,6.01 -50.85,8.24 -18.89,2.24 -37.96,3.27 -57.37,3.27 -32.3,0 -60.3,-3.44 -84.35,-10.14 -23.87,-6.7 -43.97,-16.83 -60.12,-30.57 -16.15,-13.75 -28.17,-31.27 -36.25,-52.57 -8.07,-21.3 -12.02,-46.55 -12.02,-75.75 0,-22.51 2.06,-46.56 6.36,-72.15 4.12,-25.77 10.99,-51.02 20.27,-75.93 9.44,-25.08 21.47,-48.96 36.24,-71.8 14.77,-22.68 32.64,-42.78 53.6,-60.13 21.13,-17.17 45.35,-31.09 72.83,-41.39 27.49,-10.48 58.92,-15.64 94.14,-15.64 30.4,0 56.68,3.61 78.5,10.83 21.99,7.21 40.02,16.83 53.94,28.68 14.09,11.86 24.56,25.6 31.43,40.89 6.88,15.11 10.31,30.92 10.31,47.06zm-124.71 9.11c0,-13.4 -5.15,-24.57 -15.63,-33.5 -10.48,-8.93 -25.6,-13.4 -45.35,-13.4 -16.84,0 -31.78,3.09 -45.01,9.11 -13.23,6.01 -24.91,14.08 -34.87,24.39 -9.96,10.31 -18.72,22.33 -25.94,36.25 -7.04,14.08 -12.88,28.85 -17.18,44.66l41.92 0c26.62,0 49.13,-1.72 66.99,-5.33 18.04,-3.43 32.64,-8.24 43.63,-14.25 11,-6.19 18.9,-13.23 23.88,-21.48 4.98,-8.24 7.56,-17 7.56,-26.45zm536.13 -114.92c0,2.23 -0.34,6.53 -1.03,12.54 -0.69,6.01 -1.72,13.05 -2.92,21.13 -1.38,7.9 -3.09,16.32 -5.16,24.73 -2.06,8.59 -4.29,16.49 -6.69,23.88 -2.58,7.39 -5.5,13.4 -8.59,18.21 -3.27,4.64 -6.7,6.87 -10.31,6.87 -3.09,0 -6.18,-0.51 -9.1,-1.72 -3.1,-1.2 -6.36,-2.23 -10.14,-3.43 -3.61,-1.21 -7.73,-2.41 -12.02,-3.61 -4.47,-1.2 -9.45,-1.72 -15.12,-1.72 -11.34,0 -23.53,4.3 -36.42,13.06 -12.88,8.76 -25.08,20.27 -36.76,34.52 -11.68,14.26 -22.16,30.93 -31.26,49.82 -9.28,19.07 -15.81,39 -19.93,59.78l-40.37 202.01c-0.69,3.27 -2.23,6.19 -4.81,8.76 -2.4,2.58 -6.35,4.64 -11.68,6.36 -5.15,1.55 -12.02,2.92 -20.44,3.78 -8.42,0.86 -18.72,1.2 -30.92,1.2 -12.37,0 -22.33,-0.34 -30.23,-1.2 -7.73,-0.86 -13.92,-2.23 -18.38,-3.78 -4.47,-1.72 -7.39,-3.78 -8.77,-6.36 -1.37,-2.57 -1.71,-5.49 -1.03,-8.76l89.67 -449.89c0.69,-3.26 2.24,-6.18 4.47,-8.76 2.4,-2.58 5.84,-4.47 10.31,-6.01 4.46,-1.55 10.3,-2.75 17.35,-3.61 7.21,-0.86 15.8,-1.2 25.76,-1.2 10.48,0 18.9,0.34 25.43,1.2 6.52,0.86 11.68,2.06 15.28,3.61 3.78,1.54 6.19,3.43 7.39,6.01 1.2,2.58 1.38,5.5 0.69,8.76l-13.57 71.63c8.07,-14.43 17.35,-27.65 27.83,-39.68 10.47,-12.02 21.81,-22.5 33.66,-31.43 11.86,-8.94 24.05,-15.81 36.77,-20.79 12.71,-4.98 25.25,-7.56 37.62,-7.56 4.98,0 10.13,0.35 15.28,1.03 5.33,0.69 10.14,1.55 14.61,2.41 4.63,1.03 8.58,2.4 12.19,3.78 3.44,1.54 6.36,3.09 8.25,4.81 2.06,2.06 3.09,5.15 3.09,9.62zm457.62 105.81c0,24.05 -5.5,45.87 -16.32,65.11 -10.82,19.41 -27.83,35.9 -50.67,49.82 -23.02,13.91 -52.05,24.56 -87.44,31.95 -35.21,7.38 -77.3,11.16 -126.26,11.16l-46.21 0c-1.2,7.73 -2.23,15.29 -2.92,22.85 -0.68,7.56 -1.03,14.6 -1.03,20.96 0,27.14 7.05,47.58 20.96,61.32 14.09,13.74 36.59,20.61 67.68,20.61 22.16,0 41.92,-1.54 59.61,-4.8 17.52,-3.27 32.98,-6.7 46.21,-10.66 13.4,-3.95 24.22,-7.38 32.98,-10.65 8.76,-3.26 15.12,-4.81 19.24,-4.81 3.95,0 6.87,1.21 8.42,3.44 1.71,2.41 2.57,6.18 2.57,11.17 0,5.66 -0.51,12.19 -1.54,19.58 -1.03,7.39 -2.41,14.77 -4.3,21.81 -1.71,7.22 -4.12,14.09 -7.04,20.45 -2.75,6.35 -6.01,11.16 -9.79,14.6 -3.95,3.95 -11.34,8.07 -22.16,12.02 -10.65,4.13 -23.54,7.73 -38.65,11.17 -15.12,3.26 -32.12,6.01 -50.85,8.24 -18.89,2.24 -37.96,3.27 -57.37,3.27 -32.3,0 -60.3,-3.44 -84.35,-10.14 -23.87,-6.7 -43.97,-16.83 -60.12,-30.57 -16.15,-13.75 -28.17,-31.27 -36.25,-52.57 -8.07,-21.3 -12.02,-46.55 -12.02,-75.75 0,-22.51 2.06,-46.56 6.36,-72.15 4.12,-25.77 10.99,-51.02 20.27,-75.93 9.44,-25.08 21.47,-48.96 36.24,-71.8 14.77,-22.68 32.64,-42.78 53.6,-60.13 21.13,-17.17 45.35,-31.09 72.83,-41.39 27.49,-10.48 58.92,-15.64 94.14,-15.64 30.4,0 56.68,3.61 78.5,10.83 21.99,7.21 40.02,16.83 53.94,28.68 14.09,11.86 24.56,25.6 31.43,40.89 6.88,15.11 10.31,30.92 10.31,47.06zm-124.71 9.11c0,-13.4 -5.15,-24.57 -15.63,-33.5 -10.48,-8.93 -25.6,-13.4 -45.35,-13.4 -16.84,0 -31.78,3.09 -45.01,9.11 -13.23,6.01 -24.91,14.08 -34.87,24.39 -9.96,10.31 -18.72,22.33 -25.94,36.25 -7.04,14.08 -12.88,28.85 -17.18,44.66l41.92 0c26.62,0 49.13,-1.72 66.99,-5.33 18.04,-3.43 32.64,-8.24 43.63,-14.25 11,-6.19 18.9,-13.23 23.88,-21.48 4.98,-8.24 7.56,-17 7.56,-26.45zm533.04 -88.47c0,3.95 -0.52,9.97 -1.72,17.87 -1.2,7.9 -2.92,15.8 -5.15,23.87 -2.41,8.08 -4.99,14.95 -8.25,20.96 -3.09,5.84 -6.7,8.76 -10.65,8.76 -4.29,0 -9.45,-1.54 -15.29,-4.81 -5.84,-3.09 -13.05,-6.53 -21.47,-10.3 -8.25,-3.96 -18.21,-7.22 -29.38,-10.31 -11.33,-2.92 -24.39,-4.47 -39.5,-4.47 -11.69,0 -22.16,1.55 -31.27,4.47 -9.27,3.09 -16.83,7.21 -22.85,12.37 -6.01,5.15 -10.65,11.33 -13.74,18.38 -3.26,6.87 -4.81,14.43 -4.81,22.5 0,10.31 4.3,19.07 12.71,26.11 8.59,7.04 19.24,13.74 31.96,19.93 12.71,6.18 26.45,12.71 41.05,19.41 14.77,6.7 28.52,15.12 41.23,25.08 12.71,10.13 23.19,22.33 31.61,36.76 8.41,14.43 12.54,32.47 12.54,54.28 0,25.6 -4.81,49.13 -14.61,70.78 -9.62,21.64 -23.87,40.19 -42.43,56 -18.55,15.8 -41.22,28.17 -67.85,36.93 -26.62,8.93 -56.69,13.4 -90.18,13.4 -16.15,0 -31.61,-1.2 -46.21,-3.44 -14.6,-2.4 -27.66,-5.15 -39.34,-8.42 -11.51,-3.26 -21.3,-7.04 -29.37,-11.33 -8.08,-4.3 -14.09,-8.25 -18.21,-11.86 -2.58,-2.74 -4.47,-5.49 -5.67,-8.58 -1.2,-3.1 -1.72,-6.88 -1.72,-11.51 0,-3.1 0.17,-7.05 0.69,-11.68 0.51,-4.64 1.37,-9.97 2.57,-15.64 1.21,-5.67 2.58,-11.51 3.96,-17.17 1.54,-5.67 3.26,-11 5.32,-15.64 2.06,-4.63 4.12,-8.41 6.53,-11.33 2.4,-2.92 4.81,-4.3 7.56,-4.3 4.63,0 9.96,2.06 15.63,6.01 5.67,3.95 13.05,8.42 22.16,13.4 8.93,4.81 20.1,9.28 33.32,13.4 13.4,4.3 29.89,6.36 49.65,6.36 13.74,0 25.59,-1.55 35.73,-4.81 10.13,-3.27 18.55,-7.73 25.25,-13.4 6.53,-5.67 11.51,-12.37 14.6,-19.76 3.26,-7.38 4.81,-15.28 4.81,-23.7 0,-11.68 -4.12,-21.3 -12.37,-28.69 -8.07,-7.39 -18.38,-14.26 -30.75,-20.61 -12.36,-6.36 -25.76,-12.89 -40.36,-19.59 -14.61,-6.7 -28,-14.94 -40.37,-24.73 -12.37,-9.62 -22.68,-21.82 -30.75,-36.25 -8.25,-14.43 -12.37,-32.46 -12.37,-54.28 0,-23.88 4.47,-45.87 13.57,-66.31 9.11,-20.61 22.33,-38.48 39.85,-53.59 17.35,-15.29 38.48,-27.32 63.39,-35.73 24.91,-8.59 53.08,-12.89 84.52,-12.89 14.08,0 27.83,0.86 41.05,2.75 13.23,1.89 25.25,4.3 35.73,7.22 10.65,2.92 19.93,6.35 27.66,9.96 7.9,3.61 13.57,7.39 17.01,10.99 3.26,3.44 4.98,9.11 4.98,17.18zm543.16 163.71c0,2.4 -0.17,6.18 -0.68,11.16 -0.52,5.16 -1.55,10.65 -2.92,16.67 -1.21,6.18 -2.92,12.19 -4.99,18.55 -2.06,6.18 -4.29,12.02 -7.04,17.35 -2.75,5.32 -5.84,9.79 -9.62,13.23 -3.61,3.26 -7.9,4.98 -12.54,4.98l-209.57 0c-6.01,0 -10.31,-1.72 -12.71,-5.33 -2.58,-3.43 -3.78,-9.45 -3.78,-17.86 0,-2.75 0.17,-6.7 0.52,-11.86 0.34,-5.32 1.03,-10.82 2.23,-16.83 1.2,-5.84 2.75,-11.85 4.81,-18.04 2.06,-6.35 4.29,-12.02 7.04,-17.18 2.58,-5.32 5.84,-9.44 9.45,-12.54 3.78,-2.92 8.07,-4.46 13.05,-4.46l209.58 0c6.35,0 10.82,1.89 13.39,5.84 2.58,3.78 3.78,9.28 3.78,16.32zm820.59 233.62c1.72,12.2 2.41,21.64 2.24,28.69 -0.18,7.04 -2.41,12.36 -6.87,15.97 -4.64,3.44 -11.86,5.67 -22.16,6.53 -10.31,0.86 -24.4,1.2 -42.26,1.2 -13.06,0 -23.54,-0.17 -31.78,-0.69 -8.08,-0.51 -14.43,-1.54 -18.9,-2.92 -4.29,-1.2 -7.38,-3.26 -9.1,-6.01 -1.72,-2.57 -2.75,-6.35 -3.09,-10.99l-17.7 -130.9 -243.92 0 -67.17 127.81c-2.41,4.81 -4.98,8.76 -8.07,11.85 -2.92,3.26 -7.39,5.67 -13.06,7.39 -5.67,1.54 -13.4,2.74 -22.85,3.43 -9.62,0.69 -21.64,1.03 -36.07,1.03 -15.46,0 -27.66,-0.51 -36.25,-1.54 -8.58,-1.03 -14.25,-3.44 -17.17,-7.22 -2.75,-3.95 -3.1,-9.27 -1.03,-16.32 2.23,-7.21 6.52,-16.49 12.88,-28.34l315.56 -578.04c3.43,-5.67 6.87,-10.31 10.13,-13.74 3.44,-3.61 8.25,-6.19 14.61,-8.08 6.18,-1.89 14.6,-3.09 25.42,-3.6 10.65,-0.52 24.56,-0.69 41.91,-0.69 19.59,0 35.05,0.17 46.56,0.69 11.33,0.51 20.27,1.71 26.62,3.6 6.36,1.89 10.48,4.64 12.37,8.25 2.06,3.78 3.44,8.76 4.12,15.11l85.03 577.53zm-197.89 -477.72l-0.51 0 -144.98 276.56 182.77 0 -37.28 -276.56zm403.51 510.01c-0.69,3.27 -2.23,6.19 -4.81,8.76 -2.4,2.58 -6.35,4.64 -11.34,6.36 -5.15,1.55 -11.85,2.92 -20.27,3.78 -8.41,0.86 -18.72,1.2 -30.92,1.2 -12.71,0 -22.84,-0.34 -30.74,-1.2 -7.73,-0.86 -13.92,-2.23 -18.21,-3.78 -4.3,-1.72 -7.22,-3.78 -8.76,-6.36 -1.38,-2.57 -1.89,-5.49 -1.21,-8.76l131.93 -662.21c0.69,-3.26 2.23,-6.35 4.47,-9.1 2.4,-2.58 6.35,-4.98 11.68,-6.7 5.32,-1.89 12.19,-3.27 20.27,-4.3 8.24,-1.03 18.55,-1.54 31.09,-1.54 12.37,0 22.5,0.51 30.41,1.54 7.9,1.03 14.08,2.41 18.38,4.3 4.29,1.72 7.21,4.12 8.58,6.7 1.38,2.75 1.72,5.84 1.04,9.1l-131.59 662.21zm621.67 -306.62c0,21.81 -2.06,45.17 -6.01,70.43 -4.13,25.08 -10.31,49.98 -18.73,74.89 -8.24,24.74 -19.06,48.79 -32.12,71.63 -13.05,23.02 -28.69,43.29 -47.07,60.64 -18.21,17.52 -39.16,31.44 -62.87,41.75 -23.7,10.47 -50.16,15.63 -79.7,15.63 -13.4,0 -25.94,-1.38 -37.45,-3.95 -11.68,-2.75 -22.51,-6.53 -32.3,-11.34 -9.79,-4.81 -18.72,-10.48 -26.79,-17.01 -7.91,-6.52 -14.95,-13.57 -20.96,-20.78l-40.37 202.53c-0.69,3.43 -2.41,6.35 -4.81,9.1 -2.58,2.58 -6.36,4.98 -11.68,6.7 -5.15,1.89 -12.03,3.26 -20.44,4.29 -8.42,1.04 -18.73,1.55 -31.27,1.55 -12.36,0 -22.33,-0.51 -30.06,-1.55 -7.73,-1.03 -13.91,-2.4 -18.38,-4.29 -4.47,-1.72 -7.39,-4.12 -8.76,-6.7 -1.37,-2.75 -1.72,-5.67 -1.03,-9.1l125.74 -627.69c1.38,-7.04 6.53,-12.02 15.63,-15.11 9.11,-2.92 24.05,-4.47 44.84,-4.47 10.31,0 18.72,0.34 25.42,1.2 6.53,0.86 11.68,2.06 15.46,3.61 3.95,1.54 6.53,3.43 7.9,6.01 1.38,2.58 1.72,5.5 1.04,8.76l-14.09 73.35c4.98,-11.16 12.88,-22.67 23.88,-34.53 10.82,-11.85 23.87,-22.84 39.16,-32.63 15.29,-9.97 32.13,-18.04 50.33,-24.4 18.21,-6.35 37.11,-9.62 56.52,-9.62 25.94,0 47.58,4.47 65.28,13.4 17.52,8.76 31.78,20.96 42.77,36.42 10.82,15.46 18.72,33.5 23.71,54.28 4.81,20.79 7.21,43.12 7.21,67zm-129.87 10.99c0,-11.34 -0.85,-21.82 -2.74,-31.09 -1.89,-9.45 -4.99,-17.35 -9.11,-23.88 -4.29,-6.53 -9.79,-11.51 -16.32,-14.94 -6.53,-3.27 -14.6,-4.99 -24.05,-4.99 -15.11,0 -30.4,4.47 -45.52,13.4 -15.29,8.76 -29.72,20.96 -43.12,36.08 -13.39,15.29 -25.25,33.15 -35.73,53.42 -10.3,20.27 -17.69,41.91 -21.98,65.11l-13.75 68.54c11.69,18.38 24.57,32.12 38.83,41.39 14.08,9.11 30.57,13.75 49.3,13.75 13.74,0 26.45,-3.44 38.13,-10.14 11.51,-6.7 21.99,-15.63 31.27,-26.8 9.27,-11.33 17.35,-24.22 24.22,-38.99 6.87,-14.77 12.71,-30.23 17.18,-46.21 4.63,-16.15 7.9,-32.29 10.13,-48.61 2.23,-16.32 3.26,-31.61 3.26,-46.04zm435.81 -305.25c-2.4,12.37 -5.67,22.84 -9.62,31.43 -4.12,8.59 -9.44,15.46 -16.32,20.62 -6.7,5.32 -14.94,8.93 -24.9,11.16 -9.8,2.24 -21.99,3.27 -36.42,3.27 -14.09,0 -25.42,-1.03 -34.36,-3.27 -8.76,-2.23 -15.46,-5.84 -19.92,-11.16 -4.64,-5.16 -7.22,-12.03 -7.91,-20.62 -0.51,-8.59 0.35,-19.06 3.1,-31.43 2.4,-12.03 5.49,-22.33 9.44,-30.75 4.13,-8.42 9.45,-15.29 16.15,-20.61 6.7,-5.33 14.77,-9.28 24.57,-11.51 9.62,-2.41 21.64,-3.61 36.07,-3.61 14.26,0 25.94,1.2 34.87,3.61 9.11,2.23 15.81,6.18 20.44,11.51 4.47,5.32 7.05,12.19 7.56,20.61 0.52,8.42 -0.34,18.72 -2.75,30.75zm-130.38 600.88c-0.69,3.27 -2.23,6.19 -4.81,8.76 -2.4,2.58 -6.35,4.64 -11.68,6.36 -5.15,1.55 -12.02,2.92 -20.44,3.78 -8.42,0.86 -18.72,1.2 -30.92,1.2 -12.37,0 -22.33,-0.34 -30.23,-1.2 -7.73,-0.86 -13.92,-2.23 -18.38,-3.78 -4.47,-1.72 -7.39,-3.78 -8.77,-6.36 -1.37,-2.57 -1.71,-5.49 -1.03,-8.76l88.64 -448.34c0.69,-3.27 2.24,-6.19 4.81,-8.76 2.41,-2.58 6.36,-4.81 11.51,-6.53 5.33,-1.89 12.03,-3.26 20.1,-4.29 8.24,-1.04 18.55,-1.55 31.09,-1.55 12.37,0 22.5,0.51 30.41,1.55 7.9,1.03 14.08,2.4 18.72,4.29 4.47,1.72 7.39,3.95 8.76,6.53 1.38,2.57 1.72,5.49 1.03,8.76l-88.81 448.34zm609.13 -348.88c0,11.68 -0.69,23.53 -2.23,35.21 -1.55,11.86 -3.44,23.88 -5.84,36.25l-55.14 277.42c-0.69,3.27 -2.24,6.19 -4.81,8.76 -2.58,2.58 -6.36,4.64 -11.69,6.36 -5.32,1.55 -12.02,2.92 -20.44,3.78 -8.24,0.86 -18.72,1.2 -31.26,1.2 -12.2,0 -22.16,-0.34 -30.06,-1.2 -7.73,-0.86 -13.75,-2.23 -18.04,-3.78 -4.29,-1.72 -7.21,-3.78 -8.76,-6.36 -1.38,-2.57 -1.89,-5.49 -1.2,-8.76l53.59 -269.52c1.72,-8.07 2.92,-16.32 3.78,-24.74 0.86,-8.41 1.2,-15.8 1.2,-22.15 0,-15.12 -3.09,-27.66 -9.44,-37.45 -6.36,-9.79 -17.18,-14.6 -32.3,-14.6 -13.74,0 -28,4.29 -42.94,13.05 -14.95,8.76 -29.03,20.61 -42.26,35.56 -13.23,14.94 -25.08,32.47 -35.56,52.56 -10.31,19.93 -17.69,41.23 -22.16,63.73l-40.37 203.56c-0.69,3.27 -2.23,6.19 -4.81,8.76 -2.4,2.58 -6.35,4.64 -11.68,6.36 -5.15,1.55 -12.02,2.92 -20.44,3.78 -8.42,0.86 -18.72,1.2 -30.92,1.2 -12.37,0 -22.33,-0.34 -30.23,-1.2 -7.73,-0.86 -13.92,-2.23 -18.38,-3.78 -4.47,-1.72 -7.39,-3.78 -8.77,-6.36 -1.37,-2.57 -1.71,-5.49 -1.03,-8.76l89.67 -449.89c0.69,-3.26 2.06,-6.18 4.3,-8.76 2.23,-2.58 5.49,-4.47 10.13,-6.01 4.47,-1.55 10.31,-2.75 17.52,-3.61 7.22,-0.86 15.81,-1.2 25.94,-1.2 10.48,0 18.9,0.34 25.43,1.2 6.52,0.86 11.68,2.06 15.46,3.61 3.6,1.54 6.01,3.43 7.21,6.01 1.2,2.58 1.38,5.5 0.69,8.76l-14.43 74.04c7.04,-11.68 16.32,-23.71 28,-35.9 11.85,-12.2 25.25,-23.19 40.54,-32.81 15.29,-9.79 31.95,-17.7 49.82,-23.88 17.86,-6.18 36.58,-9.28 56,-9.28 23.53,0 43.28,3.44 59.26,10.31 15.97,6.87 28.86,16.15 38.65,28 9.96,11.68 17.18,25.42 21.47,40.88 4.3,15.64 6.53,32.3 6.53,49.65zm477.72 349.4c-1.38,7.04 -6.7,12.02 -15.98,15.12 -9.1,2.92 -24.05,4.46 -44.66,4.46 -10.31,0 -18.72,-0.34 -25.25,-1.03 -6.53,-0.69 -11.85,-1.72 -15.81,-3.26 -4.12,-1.55 -6.69,-3.44 -7.9,-6.01 -1.03,-2.58 -1.37,-5.67 -0.68,-9.28l14.08 -72.15c-5.15,10.82 -13.23,22.16 -24.22,34.01 -10.99,11.86 -24.22,22.68 -39.17,32.3 -15.11,9.79 -31.77,17.69 -50.16,24.05 -18.2,6.35 -37.1,9.62 -56.68,9.62 -26.8,0 -49.13,-4.64 -67,-14.09 -17.86,-9.45 -32.12,-21.99 -42.94,-37.96 -10.65,-15.98 -18.38,-34.19 -22.85,-54.63 -4.64,-20.44 -6.87,-41.91 -6.87,-64.42 0,-21.12 2.06,-44.14 6.01,-69.05 4.13,-25.08 10.31,-49.99 18.73,-74.73 8.41,-24.9 19.06,-48.78 32.12,-71.8 13.23,-22.85 28.86,-43.29 47.24,-60.98 18.21,-17.87 39.16,-31.95 62.87,-42.6 23.71,-10.48 50.5,-15.81 80.39,-15.81 27.83,0 52.4,5.84 73.87,17.35 21.47,11.51 40.2,28.35 56.17,50.33l8.07 -39.85c1.38,-7.04 6.7,-12.02 15.98,-15.11 9.28,-2.92 24.22,-4.47 44.83,-4.47 9.97,0 18.39,0.34 24.91,1.2 6.7,0.86 12.03,2.06 15.81,3.61 3.78,1.54 6.35,3.43 7.73,6.01 1.37,2.58 1.71,5.5 1.03,8.76l-89.67 450.41zm-62.87 -315.39c-11.68,-18.21 -24.57,-31.78 -38.83,-40.88 -14.25,-9.11 -30.74,-13.75 -49.47,-13.75 -14.26,0 -27.31,3.27 -38.99,9.97 -11.85,6.7 -22.33,15.8 -31.44,26.97 -9.1,11.16 -17.18,24.22 -24.05,38.82 -6.87,14.77 -12.54,30.06 -17.18,46.04 -4.46,15.8 -7.9,31.95 -10.13,48.1 -2.23,16.31 -3.26,31.26 -3.26,45 0,9.97 0.68,19.58 2.23,28.52 1.55,9.1 4.47,17.18 8.42,24.22 4.12,7.04 9.62,12.54 16.49,16.66 6.7,4.3 15.46,6.36 25.94,6.36 14.77,0 29.89,-4.47 45.35,-13.4 15.46,-8.76 29.89,-20.96 43.46,-36.08 13.4,-15.28 25.25,-33.15 35.38,-53.42 10.31,-20.27 17.87,-41.91 22.51,-65.1l13.57 -68.03z"/>
 </g>
</svg>
