<?xml version="1.0" encoding="UTF-8"?>
<!DOCTYPE svg PUBLIC "-//W3C//DTD SVG 1.1//EN" "http://www.w3.org/Graphics/SVG/1.1/DTD/svg11.dtd">
<!-- Creator: CorelDRAW -->
<svg xmlns="http://www.w3.org/2000/svg" xml:space="preserve" width="135.45mm" height="98.148mm" version="1.1" style="shape-rendering:geometricPrecision; text-rendering:geometricPrecision; image-rendering:optimizeQuality; fill-rule:evenodd; clip-rule:evenodd"
viewBox="0 0 13544.96 9814.8"
 xmlns:xlink="http://www.w3.org/1999/xlink"
 xmlns:xodm="http://www.corel.com/coreldraw/odm/2003">
 <defs>
  <style type="text/css">
   <![CDATA[
    .fil0 {fill:white}
   ]]>
  </style>
 </defs>
 <g id="Capa_x0020_1">
  <metadata id="CorelCorpID_0Corel-Layer"/>
  <g id="_1741925191296">
   <path class="fil0" d="M-7.13 529.62c0,414.81 240.33,634.92 634.92,634.92l12275.12 0c168.42,0 341.87,-61.68 439.82,-142.19 37.25,-30.61 104.67,-116.8 131.47,-159.53 31.8,-50.71 54.92,-122.3 63.63,-202.76l0 -141.53c-26.83,-249.86 -200.82,-518.01 -661.37,-518.01l-12222.21 0c-355.32,0 -661.38,200 -661.38,529.1z"/>
   <path class="fil0" d="M-7.13 9153.95l0 132.28c0,305.46 293.86,529.1 608.47,529.1l12328.03 0c314.6,0 608.46,-223.64 608.46,-529.1l0 -126.02c-2.67,-69.37 -16.85,-109.01 -79.68,-217.59 -135.89,-234.84 -360.96,-291.31 -661.06,-291.31l-12063.48 0c-282.05,0 -516.68,51.13 -651.33,274.59 -36.45,60.49 -89.41,149.95 -89.41,228.05z"/>
   <path class="fil0" d="M-7.13 4868.24c0,360.64 228.94,608.47 529.1,608.47l12486.76 0c697.5,0 697.5,-1137.57 0,-1137.57l-12486.76 0c-273.84,0 -529.1,255.26 -529.1,529.1z"/>
  </g>
 </g>
</svg>
